<svg width="106" height="106" viewBox="0 0 106 106" fill="none" xmlns="http://www.w3.org/2000/svg">
<path d="M87.5777 56.0121C87.7432 56.1878 87.9664 56.2765 88.1902 56.2765C88.3969 56.2765 88.6043 56.2006 88.7668 56.0475C89.105 55.7288 89.1208 55.1965 88.8022 54.8583C87.3014 53.2654 87.1392 51.3877 87.1392 50.6541C87.1392 48.4527 88.3023 46.9807 88.8022 46.4499C89.1208 46.1117 89.1048 45.5793 88.7666 45.2607C88.4284 44.9421 87.8961 44.9583 87.5775 45.2963C86.9398 45.9731 85.4567 47.8504 85.4567 50.6543C85.4569 51.5883 85.6634 53.9805 87.5777 56.0121Z" fill="#F5446A"/>
<path d="M85.352 64.1561C83.3233 64.1561 81.6727 65.8203 81.6727 67.866C81.6727 69.9118 83.3233 71.576 85.352 71.576C87.3807 71.576 89.0313 69.9118 89.0313 67.866C89.0313 65.8203 87.3807 64.1561 85.352 64.1561ZM85.352 69.8935C84.251 69.8935 83.3553 68.9841 83.3553 67.866C83.3553 66.748 84.251 65.8386 85.352 65.8386C86.453 65.8386 87.3488 66.7482 87.3488 67.866C87.3488 68.9839 86.453 69.8935 85.352 69.8935Z" fill="#F5446A"/>
<path d="M75.7875 82.2095C75.7875 79.6367 73.7127 77.5434 71.1622 77.5434C68.6116 77.5434 66.5369 79.6367 66.5369 82.2095C66.5369 82.6741 66.9135 83.0508 67.3781 83.0508C67.8427 83.0508 68.2194 82.6741 68.2194 82.2095C68.2194 80.5644 69.5396 79.2259 71.1622 79.2259C72.7848 79.2259 74.1049 80.5644 74.1049 82.2095C74.1049 83.8546 72.7848 85.1933 71.1622 85.1933C70.6976 85.1933 70.3209 85.5699 70.3209 86.0345C70.3209 86.4991 70.6976 86.8758 71.1622 86.8758C73.7127 86.8756 75.7875 84.7823 75.7875 82.2095Z" fill="#F5446A"/>
<path d="M88.1901 98.5802H57.9185C57.4539 98.5802 57.0773 98.9569 57.0773 99.4214C57.0773 99.886 57.4539 100.263 57.9185 100.263H88.1901C88.6547 100.263 89.0314 99.886 89.0314 99.4214C89.0314 98.9569 88.6547 98.5802 88.1901 98.5802Z" fill="#F5446A"/>
<path d="M69.2703 94.5255H76.8382C77.3028 94.5255 77.6795 94.1488 77.6795 93.6842C77.6795 93.2196 77.3028 92.8429 76.8382 92.8429H69.2703C68.8058 92.8429 68.4291 93.2196 68.4291 93.6842C68.4291 94.1488 68.8058 94.5255 69.2703 94.5255Z" fill="#F5446A"/>
<path d="M73.1589 89.8592C73.1589 90.3238 73.5356 90.7004 74.0002 90.7004H77.7842C78.2488 90.7004 78.6255 90.3238 78.6255 89.8592C78.6255 89.3946 78.2488 89.0179 77.7842 89.0179H74.0002C73.5356 89.0179 73.1589 89.3946 73.1589 89.8592Z" fill="#F5446A"/>
<path d="M95.772 2.95794H40.1382C40.0789 2.83785 40.0217 2.71755 39.9603 2.59767C39.7515 2.19049 39.2549 2.02518 38.8433 2.22541L33.9972 4.58559L30.654 0.322243C30.3711 -0.038241 29.8516 -0.106594 29.4857 0.169553C24.718 3.76367 21.5704 8.71012 20.922 13.5556C20.3457 13.5043 19.7486 13.4763 19.1332 13.4763C13.8 13.4763 9.77809 15.4823 9.77809 18.1424V23.5695C9.77809 27.3411 12.0354 30.6984 15.4541 32.1105V49.8127H12.5316C9.9699 49.8127 7.88587 51.8967 7.88587 54.4582V54.4992C7.88587 57.0608 9.9699 59.1449 12.5316 59.1449H14.1855C14.0008 62.4164 12.7467 65.5398 10.6017 68.0177L7.02609 72.1484C3.0431 76.7501 1.91748 83.1528 4.08859 88.8585L10.4044 105.458C10.5287 105.784 10.8417 106 11.1908 106H47.8872H95.772C99.3577 106 102.275 103.055 102.275 99.4356V9.52237C102.275 5.90281 99.3577 2.95794 95.772 2.95794ZM27.4988 4.19881C27.2961 4.79969 27.1204 5.41087 26.9791 6.03257C26.5255 8.02932 26.4026 10.0745 26.6142 12.1116C26.659 12.5442 27.0243 12.866 27.45 12.866C27.479 12.866 27.5083 12.8645 27.5379 12.8614C28 12.8134 28.3357 12.3999 28.2877 11.9377C28.0953 10.0837 28.2072 8.22219 28.6198 6.40504C28.9414 4.99045 29.4423 3.6318 30.1072 2.35096L32.8459 5.84307L31.2406 12.9083C31.1375 13.3613 31.4214 13.812 31.8745 13.9151C31.9371 13.9294 31.9998 13.9363 32.0616 13.9363C32.4457 13.9363 32.7927 13.6715 32.8812 13.2812L34.486 6.21891L38.4544 4.28609C38.5007 5.73539 38.3653 7.18259 38.0431 8.60097C37.6302 10.4177 36.9273 12.1414 35.9542 13.7245C35.7109 14.1203 35.8345 14.6383 36.2303 14.8817C36.3677 14.966 36.5197 15.0064 36.6701 15.0064C36.9528 15.0064 37.2287 14.864 37.3877 14.6055C38.4576 12.8654 39.2301 10.9704 39.6838 8.97365C39.8236 8.35847 39.9283 7.73782 40.0053 7.11465C40.7745 9.55328 41.1059 12.015 40.9572 14.3077C38.9049 16.6957 36.8785 19.8637 36.4278 23.3962C35.5352 24.0637 34.52 24.6131 33.3974 25.0347C32.2337 23.1581 30.329 22.6211 29.9221 22.5267C29.4474 22.4165 28.9681 22.3732 28.4886 22.3927V18.1424C28.4886 16.0977 26.1107 14.4404 22.5887 13.7828C23.0283 10.4724 24.7811 7.08899 27.4988 4.19881ZM44.4613 18.424C44.8176 18.5063 45.4696 18.623 46.2955 18.623C46.8598 18.623 47.5061 18.566 48.1932 18.4087C48.8405 21.6974 48.8281 25.4705 46.7004 28.431C46.2515 29.0552 45.7167 29.6253 45.1066 30.1375C44.5507 29.0512 43.5448 28.2425 42.318 27.9596C41.0908 27.6772 39.8369 27.9647 38.8681 28.6995C38.5365 27.9685 38.298 27.2176 38.1611 26.4561C38.0201 25.6726 37.9896 24.8989 38.0431 24.1394L38.0927 23.6294C38.4014 21.094 39.6497 18.7393 41.1105 16.775C41.9102 17.4248 43.0234 18.0926 44.4613 18.424ZM42.1613 15.4613C42.2538 15.3534 42.3464 15.2483 42.4389 15.1437C42.4437 15.1374 42.4498 15.1322 42.4545 15.1259C43.8032 13.6059 45.1436 12.4414 45.9619 11.7805C46.4488 12.8037 47.2306 14.615 47.8113 16.771C46.4614 17.0803 45.3165 16.8944 44.8395 16.7844C43.692 16.52 42.8013 15.9833 42.1613 15.4613ZM49.8871 18.4274C52.5998 18.076 55.3412 18.8897 57.3594 20.6839C57.6589 20.9502 57.9397 21.2396 58.2032 21.5441C56.371 23.198 54.6893 25.7033 53.2536 28.9746C50.7746 34.6237 49.1762 42.1619 48.7074 50.3481C48.0613 50.007 47.3261 49.8129 46.546 49.8129H41.4172L45.4345 32.0082C46.4713 31.2704 47.3568 30.3999 48.0662 29.4131C50.44 26.1103 50.534 22.0051 49.8871 18.4274ZM87.9432 35.2027C88.0254 35.228 88.1085 35.24 88.1903 35.24C88.5501 35.24 88.8831 35.0074 88.9941 34.6452C89.2629 33.7694 90.1311 31.5979 92.3811 30.3535C93.2833 29.8544 94.1759 29.6354 94.9167 29.5503V85.3367C93.7584 84.62 92.4242 84.237 91.0279 84.237C90.6045 84.237 90.182 84.2734 89.7647 84.3457C89.3418 83.5699 88.8126 82.859 88.1865 82.2261C86.3445 80.3642 83.8689 79.3839 81.2919 79.4632C81.0271 78.0736 80.4533 76.7343 79.5715 75.5582V59.302C79.5715 56.9403 78.9727 54.6481 77.8402 52.6726C76.8746 50.989 75.7349 48.2788 75.7877 44.9301C75.8594 40.366 78.094 36.9574 79.9559 34.9016C81.6906 32.9862 82.6783 30.4237 82.7372 27.6858C82.7954 24.9773 83.9524 22.4251 85.9113 20.6839C88.3453 18.5202 91.7489 17.8042 94.9169 18.7521V27.8606C93.7359 27.9697 92.5878 28.3165 91.5669 28.8812C88.7802 30.4227 87.7148 33.0806 87.386 34.1518C87.2493 34.5958 87.499 35.0663 87.9432 35.2027ZM81.0549 27.6496C81.0046 29.9825 80.1713 32.1569 78.7086 33.772C76.6527 36.0419 74.185 39.8159 74.1051 44.9034C74.0464 48.6343 75.31 51.6426 76.3803 53.5092C77.3672 55.2302 77.8889 57.2333 77.8889 59.3016V73.8267C76.6481 72.8428 75.1899 72.2026 73.6603 71.9418C72.5768 66.8957 72.0036 61.2041 72.0036 55.4351C72.0036 53.851 72.0465 52.2576 72.1309 50.6994C72.1561 50.2354 71.8003 49.8389 71.3363 49.8139C70.8711 49.7895 70.4759 50.1445 70.4509 50.6085C70.3648 52.1968 70.3211 53.8207 70.3211 55.4351C70.3211 61.1374 70.8702 66.7733 71.9121 71.8123C71.3998 71.8226 70.8858 71.8718 70.3752 71.9685C69.907 70.8038 69.206 69.7333 68.3208 68.8386C66.206 66.7009 63.2864 65.7335 60.3668 66.1634C59.9604 64.2983 59.1356 62.5987 58.0026 61.1622C57.8785 59.2809 57.8139 57.3563 57.8139 55.4349C57.8139 49.84 58.3553 44.2779 59.3795 39.3502C59.474 38.8953 59.1821 38.4498 58.7269 38.3554C58.2714 38.2614 57.8266 38.5531 57.7321 39.008C56.67 44.1185 56.1314 49.6455 56.1314 55.4351C56.1314 56.7367 56.163 58.039 56.2191 59.3304C54.6365 58.0098 52.7238 57.085 50.6352 56.7031C50.9902 56.0469 51.1921 55.2963 51.1921 54.4994V54.4584C51.1921 53.452 50.8693 52.5201 50.3233 51.7585C50.6787 43.2615 52.263 35.4202 54.7948 29.6508C57.2722 24.0055 60.3973 20.8963 63.5945 20.8963H83.426C81.9563 22.7944 81.1083 25.1666 81.0549 27.6496ZM27.0302 35.3664C27.2121 35.4086 28.7565 35.8099 29.5751 37.3255L26.7379 49.8129H24.7043V35.5756C25.3077 35.3262 26.1126 35.1535 27.0302 35.3664ZM24.7043 33.7966V32.0265C27.051 30.6351 28.4883 28.1197 28.4883 25.341V24.0765C28.841 24.0557 29.1933 24.0854 29.5414 24.1661C29.7261 24.209 31.2986 24.6152 32.1109 26.1658L30.0575 35.2032C28.9731 34.1491 27.7285 33.801 27.4109 33.7274C26.3848 33.4891 25.465 33.5806 24.7043 33.7966ZM33.7124 26.7099C34.657 26.3753 35.5399 25.9618 36.3532 25.4716C36.3778 25.8954 36.4272 26.3232 36.5048 26.7539C36.7206 27.954 37.1452 29.1265 37.7636 30.2456L33.3488 49.8129H28.4633L33.7124 26.7099ZM38.2898 35.5584C38.8896 34.8071 39.8558 34.4626 40.7938 34.6788C41.7356 34.8959 42.4606 35.6331 42.6789 36.5776L39.6926 49.8129H35.0734L38.2898 35.5584ZM38.8265 33.1797L39.4364 30.4763C40.0362 29.7261 41.0024 29.3828 41.9398 29.5991C42.8808 29.8161 43.6066 30.552 43.8255 31.4953L43.2179 34.188C42.67 33.6294 41.9678 33.2228 41.1715 33.0392C40.3723 32.8552 39.5624 32.9145 38.8265 33.1797ZM11.4604 23.5697V18.1424C11.4604 17.168 13.0317 16.1141 15.4539 15.557V21.0112C15.4539 21.4758 15.8306 21.8524 16.2952 21.8524C16.7598 21.8524 17.1365 21.4758 17.1365 21.0112V15.2712C17.7685 15.1988 18.4366 15.1591 19.1332 15.1591C19.8298 15.1591 20.498 15.199 21.13 15.2712V21.0112C21.13 21.4758 21.5067 21.8524 21.9712 21.8524C22.4358 21.8524 22.8125 21.4758 22.8125 21.0112V15.557C25.2347 16.1141 26.8058 17.168 26.8058 18.1424V25.3408C26.8058 27.4395 25.7603 29.3431 24.0427 30.4538C22.489 28.8693 20.4986 28.7759 20.0792 28.7759C18.0711 28.7759 16.7099 29.8491 16.0447 30.5348C13.2811 29.369 11.4604 26.6372 11.4604 23.5697ZM20.079 36.4257C18.852 36.4257 17.8696 36.8274 17.1365 37.2958V31.8301C17.5243 31.3962 18.5405 30.4584 20.079 30.4584C20.2683 30.4584 21.8884 30.4984 23.0218 31.823V37.2866C21.7203 36.4846 20.4101 36.4257 20.079 36.4257ZM23.0218 39.4774V49.8129H17.1365V39.4802C17.5239 39.0465 18.5399 38.1083 20.079 38.1083C20.2683 38.1083 21.8884 38.1516 23.0218 39.4774ZM12.5316 57.4627C10.8976 57.4627 9.56841 56.1335 9.56841 54.4996V54.4586C9.56841 52.8246 10.8976 51.4956 12.5316 51.4956H46.5462C48.1802 51.4956 49.5094 52.8248 49.5094 54.4586V54.4996C49.5094 56.1335 48.1802 57.4627 46.5462 57.4627H12.5316ZM5.66113 88.2604C3.71065 83.1341 4.72101 77.3825 8.29851 73.25L11.8741 69.1192C14.2835 66.3356 15.6853 62.8214 15.8716 59.1453H43.2064C43.3927 62.8216 44.7945 66.3356 47.2039 69.1192L50.7795 73.25C54.3568 77.3825 55.3673 83.1343 53.4168 88.2604L49.5356 98.4608H9.54233L5.66113 88.2604ZM47.3071 104.317H11.7708L10.1825 100.143H48.8954L47.3071 104.317ZM100.592 99.4356C100.592 102.127 98.43 104.317 95.772 104.317H49.1072L54.8823 89.1395C57.2162 89.9088 59.7981 89.6745 61.9507 88.4925C63.1827 90.2037 65.1021 91.2538 67.2349 91.3463C67.3333 91.3508 67.4318 91.3529 67.53 91.3529C68.5509 91.3529 69.5663 91.1238 70.4841 90.6849C70.9033 90.4845 71.0806 89.9824 70.8801 89.5633C70.6799 89.1441 70.1779 88.9668 69.7585 89.1672C68.9892 89.5349 68.1647 89.7031 67.3079 89.6655C65.4733 89.5858 63.8463 88.5657 62.9558 86.9368C62.7358 86.5343 62.2342 86.3826 61.8279 86.5951C61.7906 86.6144 61.7555 86.6363 61.7227 86.6603C59.8803 87.9197 57.5296 88.2355 55.4252 87.5463C56.9706 82.1898 55.732 76.4004 52.0517 72.1488L48.4761 68.0179C46.3313 65.5402 45.0769 62.4168 44.8923 59.1453H46.5464C47.5839 59.1453 48.5429 58.8033 49.3169 58.2262C54.1574 58.6231 58.1401 62.3686 58.8552 67.249C58.858 67.2732 58.862 67.2974 58.867 67.3216C58.9581 67.7647 59.3838 68.0554 59.8296 67.9822C59.8544 67.978 59.8786 67.9729 59.9026 67.9666C62.5223 67.33 65.2209 68.0979 67.1247 70.0221C68.0005 70.9073 68.6571 72.002 69.0241 73.1882C69.1475 73.6242 69.5957 73.885 70.0376 73.7745C70.0464 73.7724 70.055 73.7701 70.0639 73.7676C72.7217 73.0271 75.5822 73.7901 77.5304 75.7595C80.4155 78.6758 80.5448 83.364 77.8248 86.4327C77.5167 86.7804 77.5487 87.312 77.8963 87.6202C78.0566 87.7621 78.2555 87.8319 78.4541 87.8319C78.6863 87.8319 78.9178 87.7363 79.084 87.5486C80.7022 85.7231 81.4885 83.4258 81.4608 81.1403C83.5284 81.1083 85.509 81.9117 86.9904 83.4092C87.6384 84.0641 88.1598 84.82 88.5398 85.6562C88.7108 86.0316 89.1283 86.2283 89.5262 86.12C90.0167 85.9868 90.5221 85.9191 91.0283 85.9191C92.4829 85.9191 93.851 86.4579 94.9171 87.442V92.8894C93.7589 92.1727 92.4246 91.7897 91.0283 91.7897C90.6049 91.7897 90.1824 91.8261 89.7652 91.8984C89.3422 91.1226 88.813 90.4117 88.1869 89.7788C86.9362 88.5144 85.3668 87.638 83.6487 87.2439C83.1953 87.1402 82.7445 87.4231 82.6407 87.8759C82.5368 88.3287 82.8198 88.7801 83.2727 88.884C84.6793 89.2066 85.9649 89.9252 86.9909 90.9623C87.6388 91.6172 88.1602 92.3731 88.5403 93.2093C88.7113 93.5848 89.1287 93.781 89.5267 93.6731C90.0171 93.54 90.5225 93.4722 91.0287 93.4722C92.4833 93.4722 93.8514 94.0111 94.9175 94.9951V95.5962C94.9175 96.0608 95.2942 96.4375 95.7588 96.4375C96.2234 96.4375 96.6 96.0608 96.6 95.5962V9.53667C96.6 9.07208 96.2234 8.6954 95.7588 8.6954C95.2942 8.6954 94.9175 9.07208 94.9175 9.53667V17.005C91.4382 16.1265 87.7676 16.9329 85.0414 19.214H63.5943C62.2005 19.214 60.8368 19.6578 59.5333 20.5115C59.2052 20.1259 58.854 19.7612 58.4773 19.4264C56.0599 17.2774 52.7686 16.3181 49.5319 16.7777C48.6189 13.1175 47.1206 10.3239 46.9933 10.0902C46.8779 9.87843 46.6768 9.72638 46.4415 9.67274C46.2065 9.61911 45.9594 9.66896 45.7634 9.81008C45.6107 9.91987 44.2813 10.8901 42.6665 12.4807C42.575 9.90535 41.9758 7.25178 40.9009 4.64069H95.7718C98.4298 4.64069 100.592 6.83073 100.592 9.52237V99.4356H100.592Z" fill="#F5446A"/>
<path d="M90.0822 8.69536H57.9185C57.4539 8.69536 57.0773 9.07204 57.0773 9.53663C57.0773 10.0012 57.4539 10.3779 57.9185 10.3779H90.0822C90.5468 10.3779 90.9234 10.0012 90.9234 9.53663C90.9234 9.07204 90.5468 8.69536 90.0822 8.69536Z" fill="#F5446A"/>
<path d="M63.6774 51.4941C63.6929 51.495 63.7083 51.4954 63.7236 51.4954C64.1674 51.4954 64.5386 51.1481 64.563 50.6995C64.8181 45.9897 65.4442 41.5366 66.4237 37.4636C66.5324 37.0119 66.2542 36.5576 65.8024 36.4491C65.3519 36.3405 64.8964 36.6186 64.7878 37.0703C63.7846 41.2422 63.1438 45.7972 62.883 50.6087C62.8575 51.0724 63.2134 51.4689 63.6774 51.4941Z" fill="#F5446A"/>
<path d="M54.1344 8.69536H48.4586C47.994 8.69536 47.6173 9.07204 47.6173 9.53663C47.6173 10.0012 47.994 10.3779 48.4586 10.3779H54.1344C54.599 10.3779 54.9757 10.0012 54.9757 9.53663C54.9757 9.07204 54.599 8.69536 54.1344 8.69536Z" fill="#F5446A"/>
<path d="M63.5943 54.594C61.5656 54.594 59.915 56.2582 59.915 58.304C59.915 60.3497 61.5656 62.014 63.5943 62.014C65.6231 62.014 67.2736 60.3497 67.2736 58.304C67.2736 56.2582 65.6231 54.594 63.5943 54.594ZM63.5943 60.3312C62.4933 60.3312 61.5976 59.4218 61.5976 58.3038C61.5976 57.1857 62.4933 56.2763 63.5943 56.2763C64.6953 56.2763 65.5911 57.1857 65.5911 58.3038C65.5911 59.4218 64.6953 60.3312 63.5943 60.3312Z" fill="#F5446A"/>
</svg>
