<svg width="106" height="106" viewBox="0 0 106 106" fill="none" xmlns="http://www.w3.org/2000/svg">
<path d="M100.945 105H4.98673C2.37499 105.031 0.193448 103.02 0.0121069 100.414C-0.169235 97.8077 1.70653 95.5122 4.29758 95.1755V89.0146C4.30276 86.999 5.78479 85.2942 7.77981 85.0093L25.6314 82.4963V53.9875C25.6418 53.6093 25.9475 53.3036 26.3258 53.2984C26.5072 53.2984 26.6833 53.3709 26.8129 53.5005C26.9424 53.63 27.015 53.8062 27.015 53.9875V82.284L33.7722 81.3462V58.5625C33.7722 55.6557 36.1299 53.298 39.0371 53.298C41.9443 53.298 44.302 55.6556 44.302 58.5625V81.4138C45.7737 81.8595 47.1676 82.5175 48.4475 83.3622V58.4906C48.375 57.0502 48.8932 55.6408 49.888 54.5993C50.883 53.5526 52.2614 52.9567 53.7071 52.9567C55.1476 52.9567 56.526 53.5526 57.521 54.5993C58.5159 55.6408 59.0392 57.0502 58.9615 58.4906V81.2478C60.1533 80.9006 61.4021 80.7918 62.6406 80.9317L64.3817 81.1234V58.5626C64.3817 55.6558 66.7394 53.2981 69.6466 53.2981C72.5536 53.2981 74.9114 55.6556 74.9114 58.5626V82.3L80.3161 82.9218L80.311 53.9886C80.3213 53.6103 80.627 53.3046 81.0053 53.2994C81.1867 53.2994 81.3629 53.372 81.4924 53.5015C81.622 53.631 81.6945 53.8072 81.6945 53.9886V83.0053L98.1108 84.8448C100.163 85.0779 101.712 86.8138 101.702 88.8761V95.094C104.293 95.4308 106.174 97.7262 105.987 100.333C105.806 102.939 103.624 104.949 101.013 104.918L100.945 105ZM4.98673 96.5019C3.02792 96.5019 1.4371 98.0927 1.4371 100.057C1.4371 102.015 3.02792 103.606 4.98673 103.606H100.945C102.904 103.606 104.495 102.015 104.495 100.057C104.495 98.0927 102.904 96.5019 100.945 96.5019H4.98673ZM53.6558 95.1184L100.251 95.1236V88.9472C100.257 87.5845 99.2306 86.4394 97.878 86.2943L80.8821 84.3719L65.1809 82.6051C65.0202 82.6672 64.844 82.6672 64.6834 82.6051L62.4189 82.3564C60.1907 82.1076 57.9625 82.8227 56.2887 84.315C54.615 85.8125 53.6615 87.9473 53.6563 90.1909L53.6558 95.1184ZM5.67654 95.1184L52.2775 95.1236V90.1338C52.2723 89.6208 52.3189 89.1078 52.4018 88.6001L49.2254 85.8384L48.6709 85.3565V85.3513C47.1734 84.1544 45.4529 83.2683 43.6134 82.7397C43.5357 82.7553 43.4527 82.7553 43.375 82.7397C41.4836 82.2371 39.5093 82.1231 37.5713 82.3977L34.6279 82.8123L7.97189 86.3772C6.66087 86.5637 5.68144 87.6881 5.68144 89.0146L5.67654 95.1184ZM49.7583 84.3978L50.147 84.7294L52.7846 87.0404C53.5981 84.7139 55.2978 82.8071 57.5105 81.7345V58.5622C57.5778 57.4948 57.1944 56.4429 56.4637 55.6657C55.7279 54.8884 54.7071 54.448 53.6344 54.448C52.567 54.448 51.541 54.8884 50.8103 55.6657C50.0745 56.4429 49.6962 57.4948 49.7584 58.5622L49.7583 84.3978ZM65.693 81.2733L73.4607 82.1438V58.5629C73.4607 56.4177 71.7196 54.6767 69.5743 54.6767C67.429 54.6767 65.693 56.4177 65.693 58.5629V81.2733ZM39.037 54.676C36.8917 54.676 35.1558 56.417 35.1558 58.5622V81.1535L37.3114 80.8478C39.1768 80.5783 41.0786 80.6457 42.9183 81.0395V58.5623C42.9183 57.5311 42.5089 56.5415 41.7835 55.8161C41.0528 55.0855 40.0682 54.676 39.037 54.676ZM28.4659 49.1472V49.1524C27.7197 49.1472 26.9787 49.0902 26.2428 48.9866C19.5945 48.0902 16.9724 42.2039 17.3299 37.1053C17.6874 32.0067 20.8692 26.9495 27.0045 26.9495L82.7561 26.9443C88.9174 26.9443 92.1095 32.1932 92.4308 37.1001C92.7469 42.007 90.1507 48.1524 83.5178 48.9814C73.667 50.3649 70.2936 42.7377 69.2984 39.4215C69.1015 38.81 69.2155 38.1416 69.6041 37.6286C69.9876 37.1104 70.5887 36.8099 71.2313 36.8099H76.7604C76.9418 36.8099 77.118 36.8824 77.2475 37.012C77.3771 37.1415 77.4496 37.3177 77.4496 37.5042C77.4496 37.6856 77.3771 37.8617 77.2475 37.9913C77.118 38.1208 76.9418 38.1934 76.7604 38.1934H71.2313C71.0292 38.1934 70.8374 38.2918 70.7235 38.4576C70.5991 38.6182 70.5576 38.8255 70.6095 39.0224C71.7598 42.8205 74.8949 48.8207 83.3673 47.6704C89.1452 46.8984 91.4096 41.867 91.078 37.2502C90.7722 32.965 88.0361 28.3794 82.7869 28.3794L27.03 28.3846C21.7496 28.3846 19.0136 32.9702 18.739 37.2554C18.4074 41.8722 20.6615 46.9294 26.4497 47.6756C34.9324 48.8207 38.0571 42.7842 39.1765 39.0793C39.2283 38.8824 39.1868 38.67 39.0625 38.5094C38.9485 38.3435 38.7567 38.2451 38.5546 38.2503H33.0255C32.6421 38.2503 32.3363 37.9394 32.3363 37.5559C32.3415 37.1777 32.6472 36.872 33.0255 36.8668H38.5546C39.2024 36.8513 39.819 37.1466 40.2077 37.6648C40.6015 38.1829 40.7207 38.8565 40.529 39.4783C39.5496 42.5303 36.6063 49.2041 28.4654 49.2041L28.4659 49.1472ZM64.3919 38.727L61.8943 38.7322C61.5108 38.7322 61.1999 38.4213 61.1999 38.0431C61.1999 37.6596 61.5108 37.3487 61.8943 37.3487H64.4075C64.5888 37.3487 64.765 37.4213 64.8946 37.5508C65.0241 37.6804 65.0967 37.8565 65.0967 38.0431C65.1122 38.2348 65.05 38.4265 64.9153 38.5664C64.7857 38.7063 64.5992 38.7892 64.4075 38.7892L64.3919 38.727ZM56.7228 38.727L54.2096 38.7322C53.8262 38.7322 53.5204 38.4213 53.5204 38.0431C53.5256 37.6648 53.8313 37.3591 54.2096 37.3487H56.7383C56.9197 37.3487 57.0959 37.4213 57.2254 37.5508C57.355 37.6804 57.4275 37.8565 57.4275 38.0431C57.4431 38.2348 57.3809 38.4265 57.2461 38.5664C57.1166 38.7063 56.93 38.7892 56.7383 38.7892L56.7228 38.727ZM49.0537 38.727L46.5405 38.7322C46.157 38.7322 45.8513 38.4213 45.8513 38.0431C45.8513 37.6596 46.157 37.3487 46.5405 37.3487H49.0692C49.4475 37.3591 49.7532 37.6648 49.7584 38.0431C49.7739 38.2348 49.7117 38.4265 49.577 38.5664C49.4475 38.7063 49.2609 38.7892 49.0692 38.7892L49.0537 38.727ZM82.7723 38.1882H80.0104V38.1933C79.6269 38.1933 79.316 37.8824 79.316 37.5042C79.316 37.1208 79.6269 36.8099 80.0104 36.8099H82.7723C83.1506 36.8202 83.4563 37.1259 83.4615 37.5042C83.477 37.6907 83.4149 37.8825 83.2853 38.0223C83.1558 38.1622 82.9744 38.2452 82.7879 38.2503L82.7723 38.1882ZM30.0413 38.1882L26.9995 38.1933C26.6212 38.1933 26.3103 37.8824 26.3103 37.5042C26.3103 37.1208 26.6212 36.8099 26.9995 36.8099H30.0568C30.4351 36.8202 30.7408 37.1259 30.746 37.5042C30.7616 37.6959 30.6942 37.8876 30.5647 38.0275C30.4351 38.1674 30.2486 38.2503 30.0568 38.2503L30.0413 38.1882ZM36.6741 21.6071V21.6123C36.5498 21.6175 36.4254 21.5812 36.3166 21.5139L28.1655 16.638H28.1603C27.8339 16.4411 27.7251 16.0162 27.9116 15.6846C28.1137 15.3633 28.5386 15.2597 28.8651 15.4514L37.0161 20.3273H37.0213C37.3478 20.5242 37.4566 20.9491 37.2701 21.2807C37.1664 21.5191 36.9436 21.6797 36.6897 21.7108L36.6741 21.6071ZM73.7092 21.6071V21.6123C73.4657 21.6123 73.2428 21.488 73.1133 21.2807C73.0148 21.1253 72.9889 20.9335 73.0304 20.7574C73.077 20.576 73.191 20.4206 73.3465 20.3273L81.4976 15.4514H81.5027C81.8292 15.2597 82.2541 15.3633 82.4562 15.6846C82.5495 15.84 82.5806 16.0318 82.5339 16.2079C82.4925 16.3893 82.3785 16.5447 82.2178 16.638L74.0668 21.5139C73.9683 21.6175 73.8336 21.6849 73.6937 21.7108L73.7092 21.6071ZM44.0379 14.0421C43.7944 14.0369 43.5715 13.9074 43.4472 13.6949L38.913 6.09352C38.7264 5.76709 38.8352 5.34738 39.1617 5.15566C39.3172 5.06239 39.5037 5.0313 39.6799 5.07276C39.8561 5.11939 40.0115 5.23338 40.0996 5.38883L44.6752 12.9902C44.7685 13.1457 44.7996 13.3322 44.7581 13.5084C44.7115 13.6846 44.5975 13.84 44.442 13.9281C44.3229 14.0058 44.183 14.0473 44.0379 14.0421ZM65.0042 14.0421C64.8591 14.0369 64.7192 13.9851 64.6 13.9022C64.4497 13.7986 64.3461 13.6328 64.315 13.4514C64.2839 13.27 64.3305 13.0835 64.4342 12.9332L69.8804 5.34736C69.984 5.1971 70.1498 5.09346 70.3312 5.06238C70.5126 5.03129 70.6991 5.07793 70.8494 5.18156C71.1499 5.40955 71.2173 5.83961 70.9996 6.15051L65.569 13.8036C65.4239 13.9643 65.2166 14.0525 65.0042 14.0421ZM54.8891 10.7933C54.5056 10.7933 54.1947 10.4824 54.1947 10.1041V0.694334C54.1947 0.310901 54.5056 0 54.8891 0C55.0705 0 55.2466 0.0725425 55.3762 0.202076C55.5058 0.33161 55.5783 0.50779 55.5783 0.69432V10.1041C55.5783 10.2855 55.5057 10.4616 55.3762 10.5912C55.2467 10.7207 55.0705 10.7933 54.8891 10.7933Z" fill="#F5446A"/>
</svg>
