<svg width="106" height="65" viewBox="0 0 106 65" fill="none" xmlns="http://www.w3.org/2000/svg">
<g clip-path="url(#clip0_137_124)">
<path d="M74.3723 41.3288C74.1909 41.3288 74.006 41.3403 73.8245 41.3657C71.5455 41.6708 69.9391 43.7707 70.2419 46.0498C70.5169 48.1127 72.2955 49.6683 74.3781 49.6683C74.5607 49.6683 74.7444 49.6567 74.927 49.6324C77.2049 49.3273 78.8113 47.2274 78.5097 44.9472C78.2335 42.8843 76.4549 41.3288 74.3723 41.3288Z" fill="#F5446A"/>
<path d="M80.0895 16.2756C78.23 15.0471 75.7753 14.3976 72.9866 14.3976C72.1672 14.3976 71.3247 14.4543 70.4834 14.5664C67.7005 14.9374 65.0008 16.2849 63.0754 18.2611C61.1234 20.2674 60.1746 22.7163 60.4774 24.9792C60.6993 26.6492 61.9567 27.7286 63.6798 27.7286C63.8647 27.7286 64.0531 27.7147 64.2415 27.6904C66.5436 27.383 67.0406 25.7974 67.519 24.265C68.0657 22.5175 68.5811 20.8684 71.5559 20.4708C71.861 20.4304 72.158 20.4096 72.44 20.4096C74.5815 20.4096 75.9105 21.5398 76.1844 23.5923C76.4525 25.6009 74.8646 27.2027 73.1831 28.8981C71.2958 30.8016 69.1566 32.9581 69.5646 36.0172C69.6698 36.8054 70.0176 37.5404 70.5423 38.0871C71.1444 38.7146 71.9326 39.0463 72.8213 39.0463C72.9843 39.0463 73.153 39.0359 73.3206 39.0128C75.7291 38.6915 76.0573 37.2943 76.3739 35.9409C76.4941 35.4301 76.619 34.9008 76.8593 34.4247C77.1933 33.759 78.0289 32.9777 78.9985 32.074C81.3122 29.9117 84.48 26.9508 83.8941 22.5649C83.5277 19.8178 82.246 17.7018 80.0895 16.2756Z" fill="#F5446A"/>
<path d="M105.955 52.7066L99.5029 4.35234C99.1712 1.87222 97.0355 0 94.5334 0C94.3127 0 94.0873 0.0150235 93.8666 0.0450715L45.5135 6.49731C42.7722 6.86366 40.8399 9.39117 41.2051 12.1336L41.5737 14.9004L9.86034 10.318C9.67543 10.2915 9.48705 10.2776 9.30098 10.2776C7.38137 10.2776 5.72758 11.7118 5.45137 13.6129L0.0404078 51.0678C-0.107521 52.0975 0.153666 53.1215 0.775429 53.9547C1.39835 54.7868 2.30672 55.3277 3.33645 55.4756L40.7902 60.8866C40.9762 60.912 41.1646 60.9247 41.3495 60.9247C43.2691 60.9247 44.9229 59.4928 45.198 57.5905L46.2751 50.1328L47.6561 60.4844C47.9878 62.9668 50.1236 64.8379 52.6245 64.8379C52.8464 64.8379 53.0717 64.824 53.2925 64.7951L101.647 58.3406C102.972 58.1649 104.153 57.4807 104.967 56.4163C105.783 55.3531 106.132 54.0345 105.955 52.7066ZM42.0013 57.1306C41.9505 57.4854 41.6153 57.7419 41.2536 57.6888L3.79872 52.2778C3.56181 52.2443 3.42543 52.1021 3.36418 52.0201C3.30293 51.938 3.20585 51.7647 3.23937 51.5289L8.65033 14.074C8.69771 13.7516 8.97739 13.5077 9.30098 13.5077C9.33334 13.5077 9.36686 13.5101 9.39806 13.5147L42.0187 18.2264L44.7091 38.3864L42.0013 57.1306ZM101.659 53.8865C101.58 53.9917 101.399 54.1731 101.095 54.2136L52.7424 60.667C52.2743 60.7317 51.8478 60.3954 51.7854 59.9354L45.3332 11.5824C45.2708 11.1166 45.599 10.6879 46.0648 10.6254L94.4167 4.17206C94.4571 4.16743 94.4941 4.16512 94.5346 4.16512C94.9575 4.16512 95.3204 4.48294 95.3759 4.90476L101.83 53.259C101.869 53.5629 101.738 53.7825 101.659 53.8865Z" fill="#F5446A"/>
<path d="M33.3753 24.3701C31.8914 23.011 29.6932 22.0622 27.1877 21.7005C26.73 21.6334 26.2597 21.5999 25.7916 21.5999C23.8235 21.5999 21.8888 22.1778 20.3402 23.2271C18.7488 24.3066 17.7445 25.7731 17.5168 27.3553C17.4082 28.1076 17.5873 28.7779 18.0369 29.2957C18.4414 29.7603 19.0504 30.0735 19.7531 30.1752C19.9299 30.2006 20.0998 30.2145 20.2616 30.2145C21.6796 30.2145 22.313 29.2471 22.9255 28.3122C23.6085 27.2651 24.2557 26.2759 25.9765 26.2759C26.2146 26.2759 26.4723 26.2955 26.7393 26.3336C28.7779 26.6272 29.7961 27.8337 29.5337 29.6435C29.3107 31.198 27.7852 32.0589 26.173 32.9685C24.362 33.9901 22.3083 35.1481 21.9663 37.5184C21.8703 38.1795 22.0044 38.8683 22.3361 39.4057C22.6077 39.8472 23.1393 40.4031 24.1355 40.5475C24.3435 40.5764 24.5411 40.5926 24.7237 40.5926C26.1244 40.5926 26.6029 39.7316 27.0629 38.8995C27.2605 38.5424 27.4639 38.1737 27.7447 37.8698C28.1342 37.4433 28.9247 37.0365 29.8388 36.5661C32.0231 35.4428 35.0152 33.9011 35.5052 30.5057C35.8531 28.0891 35.1181 25.9673 33.3753 24.3701Z" fill="#F5446A"/>
<path d="M24.0118 42.4093C23.8593 42.3874 23.7056 42.3747 23.553 42.3747C21.9547 42.3747 20.576 43.5685 20.3471 45.1483C20.094 46.9131 21.3225 48.5565 23.0873 48.8119C23.2398 48.835 23.3947 48.8442 23.5461 48.8442C25.1456 48.8442 26.5243 47.6527 26.752 46.0729C27.0051 44.3081 25.7766 42.6659 24.0118 42.4093Z" fill="#F5446A"/>
</g>
<defs>
<clipPath id="clip0_137_124">
<rect width="106" height="65" fill="white"/>
</clipPath>
</defs>
</svg>
