<svg width="106" height="106" viewBox="0 0 106 106" fill="none" xmlns="http://www.w3.org/2000/svg">
<path d="M91.3624 88.2777V85.4004C109.13 71.1877 111.045 43.224 95.3357 26.8015C96.0049 25.877 95.8794 24.5088 95.0429 23.7253L93.3616 22.0917L95.0179 20.4126L96.5989 21.9466C97.3727 22.697 98.619 22.6846 99.3803 21.9176L102.216 19.0486C102.973 18.2816 102.961 17.0462 102.187 16.2915L92.8054 7.17878C92.0316 6.42837 90.7853 6.44081 90.0282 7.20781L87.1925 10.0768C86.4438 10.8023 86.4563 12.1207 87.2217 12.8297L88.8028 14.3637L87.1506 16.0387L85.4734 14.4051C84.5115 13.4764 82.9639 13.493 82.0228 14.4507L69.5468 27.0831L68.7563 26.3161C67.97 25.52 66.573 25.5366 65.8034 26.3451L62.2859 29.9023C61.4829 30.6818 61.4996 32.0666 62.3152 32.8294L76.9413 47.0336C77.7276 47.8296 79.1246 47.813 79.8941 47.0046L83.4116 43.4473C84.2147 42.6347 84.2021 41.3204 83.3823 40.5203L82.5919 39.7533L87.2052 35.085C91.8645 40.4001 94.4409 47.1368 94.4409 54.198C94.4409 61.5902 91.6637 68.5763 86.6196 73.9744C84.8588 72.7928 82.7591 72.1501 80.6218 72.1501L47.6757 72.1459C44.9738 72.1459 42.4351 73.1866 40.5278 75.0771C38.6205 76.9676 37.5708 79.4883 37.5708 82.1791C37.5708 82.6808 37.9806 83.0829 38.4825 83.0829H69.8975V88.2778H35.7351C30.1598 88.2778 25.626 92.7803 25.626 98.3151V102.096C25.626 102.598 26.0358 103 26.5377 103H101.861C102.367 103 102.773 102.594 102.773 102.096V98.3151C102.806 92.2371 97.3682 87.7179 91.3624 88.2777ZM88.4973 11.5401L88.4931 11.3494L91.3288 8.48039C91.379 8.43064 91.4752 8.43064 91.5212 8.48039L100.903 17.5931C100.953 17.6429 100.953 17.7383 100.903 17.788L98.0669 20.657C98.0167 20.7109 97.9205 20.7067 97.8703 20.657L88.4973 11.5401ZM90.1034 15.6404C91.0026 16.5152 92.8136 18.2731 93.7171 19.1479L92.0608 20.8229C91.9479 20.7151 88.3969 17.2615 88.4513 17.3154L90.1034 15.6404ZM82.1064 42.183L78.5889 45.7403C78.5261 45.8025 78.455 45.819 78.4006 45.819C78.0702 45.8315 63.8367 31.6477 63.5904 31.5363C63.4817 31.4036 63.4817 31.3041 63.5904 31.1714L67.1079 27.6142C67.2543 27.5022 67.3254 27.5064 67.476 27.61L73.7916 33.7418L81.3075 41.0511L81.3117 41.047L82.1022 41.814C82.2067 41.9135 82.2068 42.0793 82.1064 42.183ZM85.9919 33.7211L81.2825 38.4806L73.754 31.1714L70.8472 28.3438L83.319 15.7189C83.5532 15.4784 83.9422 15.4743 84.1848 15.7023L85.8619 17.3317L86.4768 17.9287L93.7627 25.0142C93.8756 25.1219 93.9384 25.2671 93.9426 25.4246C93.9426 25.578 93.884 25.7231 93.7753 25.8392L85.9875 33.7165L85.9919 33.7211ZM88.5099 33.7667L94.0935 28.1158C108.581 43.2986 107.256 69.3221 91.3664 83.0126C91.4124 80.0608 90.2288 77.142 88.0665 75.1063C98.7695 63.9705 98.9493 45.1392 88.5099 33.7667ZM86.933 76.5407C88.606 78.1825 89.5094 80.4296 89.5387 82.7762V88.2778H71.7208C71.7292 88.0913 71.6957 82.1833 71.7501 82.2331C72.1265 74.7372 81.6166 71.197 86.933 76.5407ZM39.4443 81.2753C39.6451 79.4138 40.4732 77.6932 41.82 76.3582C43.3842 74.8077 45.4629 73.9577 47.6798 73.9577H74.6448C72.1563 75.6451 70.4372 78.2571 70.0148 81.2753H39.4443ZM100.948 101.189H27.4479V98.3155C27.4479 93.7798 31.1621 90.0899 35.7293 90.0899H90.4454H92.6454C97.221 90.0899 100.944 93.7798 100.944 98.3155L100.948 101.189ZM36.8928 23.5223V12.5149C43.4091 12.631 43.6894 3.2404 37.1688 3H15.9053C9.39321 3.23632 9.65254 12.6227 16.1814 12.5149V23.5223C8.68633 26.6733 3.24492 32.9088 1.08206 40.4043C-3.94113 56.7928 9.20027 74.2268 26.5363 73.9572C55.2992 73.5675 63.2332 34.9479 36.8923 23.5212L36.8928 23.5223ZM15.9045 10.7032C14.265 10.7032 12.9308 9.38059 12.9308 7.75544C12.9308 6.13028 14.265 4.80771 15.9045 4.80771H37.168C41.0786 4.90722 41.0912 10.5954 37.168 10.6991H35.9801L17.0915 10.7033L15.9045 10.7032ZM17.4311 24.9689C17.7783 24.8321 18.0083 24.5004 18.0083 24.1273V12.5149H35.0692V24.1315C35.0692 24.5047 35.2992 24.8364 35.6464 24.9732C39.4316 26.4657 42.6646 28.7958 45.1993 31.6937C41.7403 36.9342 33.2746 37.8629 18.6282 34.5876C12.8647 33.2983 8.30997 33.688 5.0311 35.6988C7.72878 30.9268 12.0285 27.1 17.4322 24.9695L17.4311 24.9689ZM2.85537 40.8437C3.22343 39.7493 5.87512 33.5925 18.2224 36.3495C33.2874 39.716 42.3051 38.7127 46.3952 33.1778C58.3863 48.9369 46.5793 72.3241 26.5365 72.1458C10.3708 72.3987 -1.87937 56.1093 2.85537 40.8437ZM16.1891 41.2625C8.40546 41.5071 8.40546 52.6965 16.1891 52.9417C23.9727 52.6971 23.9685 41.5077 16.1891 41.2625ZM16.1891 51.1299C10.8313 50.9889 10.8313 43.2111 16.1891 43.0743C21.5469 43.2112 21.5427 50.9931 16.1891 51.1299ZM24.7757 59.9566C20.8985 60.0561 20.8985 65.6904 24.7757 65.7899C28.6571 65.6904 28.6529 60.0561 24.7757 59.9566ZM24.7757 63.9782C23.3202 63.9699 23.3202 61.7767 24.7757 61.7684C26.2313 61.7767 26.2354 63.9699 24.7757 63.9782ZM38.5945 46.1961C33.082 46.3412 33.082 54.3388 38.5945 54.4839C44.107 54.3388 44.107 46.3371 38.5945 46.1961ZM38.5945 52.6721C35.5036 52.6182 35.4994 48.0618 38.5945 48.008C41.6895 48.0619 41.6853 52.6183 38.5945 52.6721Z" fill="#F5446A"/>
</svg>
