<svg width="106" height="106" viewBox="0 0 106 106" fill="none" xmlns="http://www.w3.org/2000/svg">
<path d="M29.5582 72.4742H73.9103V78.3065H29.5582V72.4742Z" stroke="#F5446A"/>
<path d="M15.954 23.0883V23.1744L15.9828 23.2556L24.1095 46.1478H7.73822L15.865 23.2556L15.8938 23.1744V23.0883V13.5755H15.954V23.0883Z" stroke="#F5446A"/>
<path d="M88.0461 22.9705V23.0555L88.0741 23.1357L96.0871 46.03H79.7125L87.8393 23.1378L87.8681 23.0566V22.9705V13.8111H88.0461V22.9705Z" stroke="#F5446A"/>
<path d="M51.7644 12.1331V12.2401L51.8081 12.3377L63.2719 37.902H40.0803L51.5423 12.4563L51.5864 12.3584V12.2509V0.735596H51.7644V12.1331Z" stroke="#F5446A"/>
<path d="M21.1322 16.3522L21.1211 16.3503L21.11 16.3489C20.1276 16.2261 19.1447 16.2259 18.1623 16.3485L17.6607 16.4042V13.3421C17.679 13.3382 17.698 13.3343 17.7177 13.3304C17.9876 13.2771 18.3894 13.2221 18.8982 13.2221C19.9126 13.2221 21.3608 13.4406 23.0478 14.3396C24.5502 15.1678 25.9323 15.4178 27.0385 15.4233C26.9705 15.4567 26.901 15.4899 26.83 15.5229C25.4042 16.1864 23.4181 16.7424 21.1322 16.3522Z" stroke="#F5446A"/>
<path d="M53.3534 3.68208V0.619956C53.3717 0.616102 53.3907 0.612216 53.4104 0.608319C53.6803 0.555011 54.0821 0.5 54.5909 0.5C55.6059 0.5 57.0553 0.718737 58.7436 1.61915C60.2693 2.43287 61.6396 2.68808 62.732 2.70077C62.6637 2.7343 62.5939 2.76769 62.5227 2.80084C61.1007 3.46258 59.1212 4.01739 56.843 3.63312C55.8383 3.38509 54.8302 3.38392 53.8256 3.62961L53.3534 3.68208Z" stroke="#F5446A"/>
<path d="M89.635 16.6398V13.5777C89.6533 13.5738 89.6723 13.5699 89.6921 13.566C89.9619 13.5127 90.3637 13.4577 90.8725 13.4577C91.8869 13.4577 93.3352 13.6762 95.0221 14.5752C96.5246 15.4034 97.9066 15.6534 99.0128 15.6589C98.9448 15.6923 98.8753 15.7255 98.8043 15.7585C97.3823 16.4203 95.4029 16.9751 93.1246 16.5908C92.12 16.3428 91.1118 16.3416 90.1072 16.5873L89.635 16.6398Z" stroke="#F5446A"/>
<path d="M65.2221 87.1413H64.7221V87.6413V92.3532V92.8532H65.2221H69.934H70.434V92.3532V87.6413V87.1413H69.934H65.2221ZM33.2989 87.1413H32.7989V87.6413V92.3532V92.8532H33.2989H38.0108H38.5108V92.3532V87.6413V87.1413H38.0108H33.2989ZM42.2227 97.4185V105.4H29.5582V82.3693H73.7925V105.4H61.128V97.4185C61.128 92.1949 56.899 87.9659 51.6754 87.9659C46.4517 87.9659 42.2227 92.1949 42.2227 97.4185Z" stroke="#F5446A"/>
<path d="M6.46996 67.6158V67.1158H5.96996H4.11401V64.1107H5.46996V64.2285H5.96996H25.8778H27.7337V67.2336H25.8778H25.3778V67.7336V105.4H6.46996V67.6158ZM11.7132 83.4007V83.9007H12.2132H19.0167H19.5167H19.6345V83.4007H20.0167V77.982C20.0167 75.7033 18.1437 73.8303 15.865 73.8303C13.5863 73.8303 11.7132 75.7033 11.7132 77.982V83.4007Z" stroke="#F5446A"/>
<path d="M22.5794 51.3885H23.0794V50.8885V48.797H27.7337V51.5665H24.8176H24.3176V52.0665V60.6369H7.53014V52.0665V51.5665H7.03014H4.11401V48.797H8.7683V50.8885V51.3885H9.2683H12.2132H12.7132V50.8885V48.797H13.9514V50.8885V51.3885H14.4514H17.3963H17.8963V50.8885V48.797H19.1345V50.8885V51.3885H19.6345H22.5794Z" stroke="#F5446A"/>
<path d="M78.5621 67.498V66.998H78.0621H76.2061V63.9929H77.5621V64.1107H78.0621H97.9698H99.8258V67.1158H97.9698H97.4698V67.6158V105.282H78.5621V67.498ZM83.8053 83.2829V83.7829H84.3053H91.1088H91.6088H91.7266V83.2829H92.1088V77.8642C92.1088 75.5855 90.2358 73.7125 87.9571 73.7125C85.6784 73.7125 83.8053 75.5855 83.8053 77.8642V83.2829Z" stroke="#F5446A"/>
<path d="M94.5537 51.2707H95.0537V50.7707V48.6792H99.8258V51.4487H96.9097H96.4097V51.9487V60.5191H79.6222V51.9487V51.4487H79.1222H76.2061V48.6792H80.8604V50.7707V51.2707H81.3604H84.3053H84.8053V50.7707V48.6792H86.0435V50.7707V51.2707H86.5435H89.4884H89.9884V50.7707V48.6792H91.2266V50.7707V51.2707H91.7266H94.5537Z" stroke="#F5446A"/>
<path d="M63.573 46.1479H63.073V46.6479V68.2938H39.9245V46.6479V46.1479H39.4245H35.8016V41.0224H37.7465V42.6428V43.1428H38.2465H41.1915H41.6915V42.6428V41.0224H43.6364V42.6428V43.1428H44.1364H47.0813H47.5813V42.6428V41.0224H49.5263V42.6428V43.1428H50.0263H52.9712H53.4712V42.6428V41.0224H55.4161V42.525V43.025H55.9161H58.8611H59.3611V42.525V41.0224H61.306V42.6428V43.1428H61.806H64.751H65.251V42.6428V41.0224H67.1959V46.1479H63.573ZM55.3272 60.6946H55.8272V60.1946V54.7759C55.8272 52.4972 53.9541 50.6242 51.6754 50.6242C49.5658 50.6242 47.8039 52.2295 47.5541 54.2759H47.4059V54.7759V60.1946V60.6946H47.9059H55.3272Z" stroke="#F5446A"/>
</svg>
