<svg width="106" height="106" viewBox="0 0 106 106" fill="none" xmlns="http://www.w3.org/2000/svg">
<g clip-path="url(#clip0_22_26)">
<path d="M105.733 61.6407C106.314 58.4048 105.943 55.7718 104.656 54.0282C102.337 50.8877 96.6213 49.2798 89.3332 49.7069H89.3182C89.223 49.7119 89.1278 49.7169 89.0326 49.7219C85.5462 49.9531 81.9947 50.6465 78.4883 51.7168C80.0461 46.9181 80.4669 41.9487 79.8408 37.1452C79.8408 37.105 79.8357 37.0699 79.8307 37.0297C78.5634 27.553 73.2787 18.7496 64.808 13.2982C61.7575 11.3336 58.4664 9.91152 55.0551 9.0372C55.0501 9.0372 55.0451 9.03218 55.0351 9.03218C50.076 7.76092 44.8615 7.6504 39.7175 8.77591C31.0266 10.6803 23.5932 15.8658 18.7895 23.3783C17.8979 24.7701 17.1265 26.2072 16.4653 27.6744C16.4603 27.6845 16.4553 27.6945 16.4503 27.7096C14.2663 32.5634 13.3395 37.754 13.565 42.8535C13.555 42.9339 13.565 43.0143 13.575 43.0998C13.8856 49.0993 15.7891 54.9682 19.1553 60.0176C19.1653 60.0427 19.1853 60.0628 19.2003 60.0879C19.7213 60.8718 20.2873 61.6305 20.8784 62.3691C19.1302 61.6656 17.2317 61.2687 15.2381 61.2687C6.83774 61.2687 0 68.1224 0 76.5541C0 84.9806 6.83248 91.8396 15.2381 91.8396C23.6385 91.8396 30.4763 84.9859 30.4763 76.5541C30.4763 74.0016 29.8401 71.5947 28.7331 69.4743C28.7681 69.4994 28.8032 69.5246 28.8382 69.5497C34.2231 73.0167 40.4895 74.8407 46.836 74.8407C47.4972 74.8407 48.1635 74.8206 48.8247 74.7804C48.449 75.4085 48.0983 76.0417 47.7677 76.6698C46.2449 79.5691 45.198 82.4182 44.7372 84.9958C44.1561 88.2317 44.5268 90.8647 45.8141 92.6083C47.8879 95.4172 52.6717 97 58.8736 97C59.5448 97 60.2461 96.9699 60.9474 96.9297C60.9674 96.9297 60.9874 96.9397 61.0075 96.9397C61.0325 96.9397 61.0576 96.9297 61.0826 96.9246C61.2028 96.9196 61.318 96.9196 61.4383 96.9146C69.5531 96.382 78.0536 93.4576 85.372 88.6791C90.812 85.1266 95.6608 80.5038 99.3932 75.318C100.671 73.5443 101.783 71.7405 102.719 69.9616C102.724 69.9566 102.724 69.9465 102.729 69.9415C104.242 67.0573 105.279 64.2234 105.74 61.6557L105.733 61.6407ZM102.948 55.2944C103.864 56.5406 104.115 58.661 103.644 61.2638C103.278 63.3088 102.442 65.6956 101.185 68.2331C97.6781 67.5598 94.6225 65.6102 92.5437 62.6607C90.3096 59.4952 89.5281 55.5809 90.3246 51.8073C90.7203 51.7922 91.126 51.7671 91.5118 51.7671C96.9517 51.7671 101.32 53.0785 102.953 55.2945L102.948 55.2944ZM65.5289 57.6912C49.2738 52.8274 36.2003 45.6269 25.8607 35.8391C27.1331 33.1207 28.6207 30.5229 30.3089 28.1111C32.7183 29.6235 35.5535 30.6536 38.3186 30.8998C41.4343 31.1762 44.8556 30.9953 48.4772 30.8044C58.0497 30.2969 68.8794 29.7391 77.7609 37.6731C78.362 42.5923 77.806 47.6925 75.9526 52.5559C72.341 53.8674 68.8245 55.5909 65.5335 57.6912L65.5289 57.6912ZM51.073 71.3238C50.7925 71.7157 50.532 72.1076 50.2665 72.4996C49.8207 72.5498 49.3699 72.5799 48.924 72.6101C38.9257 69.123 32.1778 62.7968 28.3167 53.265C26.9842 49.9688 25.0107 46.7881 22.7014 44.5722C23.3025 42.291 24.0589 40.0651 24.9605 37.9044C35.089 47.3308 47.7376 54.3553 63.2707 59.2189C58.572 62.5754 54.3844 66.7258 51.0784 71.3285L51.073 71.3238ZM15.643 41.6327C15.6129 37.7938 16.2741 33.9197 17.6918 30.2165C19.47 32.3521 21.3385 34.3971 23.3121 36.3416C22.3653 38.5526 21.5588 40.8137 20.9127 43.1099C19.2496 41.9743 17.4614 41.3965 15.643 41.6327ZM20.3466 45.3209C19.5502 48.7025 19.0843 52.1294 18.9891 55.5161C17.1458 51.8429 16.0387 47.8382 15.7331 43.7532C17.1958 43.497 18.7437 44.0246 20.3516 45.321L20.3466 45.3209ZM77.2213 34.4875C68.1297 27.6489 57.6758 28.1866 48.3634 28.679C44.8219 28.8649 41.4758 29.0458 38.5053 28.7795C36.1461 28.5684 33.6815 27.6791 31.5727 26.3877C37.6288 18.4788 45.8042 12.7654 54.7601 11.1575C57.8708 11.9816 60.8663 13.2931 63.6514 15.0869C70.7343 19.6443 75.443 26.7091 77.2161 34.4873L77.2213 34.4875ZM40.164 10.8564C43.3499 10.1579 46.5608 9.97201 49.7165 10.2634C42.1877 12.7557 35.2952 17.891 29.8004 25.1514C29.0189 24.5133 28.3277 23.8098 27.7667 23.0712C26.8851 21.9054 25.9433 20.0915 26.2089 17.9459C30.1411 14.4638 34.8991 12.007 40.164 10.8564ZM20.5685 24.5236C21.6204 22.8756 22.8226 21.3581 24.13 19.9611C24.3654 21.4686 25.0216 22.9558 26.0785 24.3528C26.7647 25.2572 27.6063 26.1064 28.553 26.8701C28.4679 26.9907 28.3827 27.1013 28.3026 27.2219C26.7748 29.4629 25.4273 31.8245 24.2552 34.2666C22.2816 32.2868 20.4032 30.2117 18.6349 28.0258C19.201 26.8299 19.8371 25.6592 20.5685 24.5185L20.5685 24.5236ZM9.56838 64.6957C9.55836 64.761 9.54333 64.8263 9.55335 64.8967C9.60344 65.3288 9.96911 65.6504 10.3949 65.6504C10.43 65.6504 10.46 65.6504 10.4951 65.6454L11.7123 65.5047C11.7273 65.6504 11.7524 65.8011 11.7624 65.9469L10.475 65.9971C10.0092 66.0172 9.64352 66.4091 9.65855 66.8815C9.67859 67.3387 10.0543 67.7005 10.5051 67.7005H10.5402L11.7875 67.6502C11.7774 67.8412 11.7774 68.0321 11.7624 68.2231L10.3749 68.0974C9.90906 68.0522 9.4933 68.3989 9.45323 68.8662C9.40814 69.3335 9.75378 69.7506 10.2196 69.7908L11.512 69.9114C11.4619 70.1576 11.4068 70.4038 11.3467 70.645L10.0192 70.3586C9.56335 70.2581 9.11253 70.5545 9.01234 71.0118C8.91215 71.469 9.20769 71.9212 9.66353 72.0217L10.8006 72.268C10.7305 72.4388 10.6654 72.6046 10.5902 72.7704L9.41809 72.3383C8.97728 72.1775 8.49139 72.4036 8.33109 72.8458C8.1708 73.288 8.39621 73.7754 8.83702 73.9362L9.78877 74.2879C9.69359 74.4487 9.59341 74.6045 9.49322 74.7602L8.38118 74.1422C7.97043 73.9161 7.45448 74.0618 7.22907 74.4738C7.00366 74.8858 7.14892 75.4034 7.55967 75.6295L8.45632 76.127C8.32107 76.2827 8.18582 76.4335 8.04557 76.5842L6.99364 75.735C6.62797 75.4386 6.097 75.4989 5.80146 75.8657C5.50591 76.2325 5.56603 76.7651 5.93169 77.0616L6.79828 77.76C6.66804 77.8705 6.53279 77.976 6.39253 78.0765L5.42075 76.946C5.1152 76.5892 4.57921 76.549 4.22357 76.8555C3.86792 77.162 3.82785 77.6997 4.1334 78.0564L4.97494 79.0362C4.82466 79.1267 4.66437 79.2121 4.50909 79.2925L3.96309 78.2223C3.75271 77.8052 3.24177 77.6344 2.82101 77.8504C2.40524 78.0615 2.23995 78.574 2.45033 78.9961L2.96127 80.006C2.84606 80.0513 2.73586 80.0965 2.61564 80.1367C2.29505 78.9961 2.10971 77.8002 2.10971 76.554C2.10971 71.3383 5.16029 66.8311 9.56336 64.7057L9.56838 64.6957ZM3.18164 81.7344C3.372 81.6691 3.55232 81.5937 3.73766 81.5184L4.07827 82.1917C4.22855 82.4881 4.52409 82.659 4.83465 82.659C4.96489 82.659 5.09512 82.6288 5.22036 82.5685C5.63612 82.3575 5.80142 81.845 5.59103 81.4229L5.28046 80.8099C5.56098 80.6642 5.83147 80.5034 6.09696 80.3426L7.03869 81.438C7.204 81.6339 7.44444 81.7344 7.67986 81.7344C7.87522 81.7344 8.07058 81.6641 8.23088 81.5284C8.58652 81.2219 8.6266 80.6843 8.32104 80.3275L7.50454 79.3728C7.72494 79.202 7.93032 79.0261 8.1407 78.8452L9.1776 79.6843C9.33288 79.8099 9.52323 79.8702 9.70857 79.8702C9.95902 79.8702 10.2045 79.7597 10.3698 79.5537C10.6653 79.1869 10.6052 78.6543 10.2395 78.3578L9.37295 77.6594C9.57833 77.4383 9.77368 77.2071 9.96403 76.971L11.3265 77.7297C11.4568 77.8 11.597 77.8352 11.7373 77.8352C12.0378 77.8352 12.3234 77.6744 12.4786 77.3981C12.704 76.986 12.5588 76.4685 12.148 76.2424L10.9809 75.5942C11.1312 75.3631 11.2664 75.1269 11.4016 74.8907L12.9494 75.4585C13.0446 75.4937 13.1448 75.5088 13.24 75.5088C13.5856 75.5088 13.9112 75.2927 14.0364 74.951C14.1967 74.5089 13.9713 74.0215 13.5305 73.8607L12.183 73.3682C12.2882 73.1321 12.3784 72.8859 12.4685 72.6396L14.1115 72.9914C14.1716 73.0065 14.2317 73.0115 14.2918 73.0115C14.6825 73.0115 15.0332 72.7401 15.1183 72.3382C15.2185 71.8809 14.923 71.4287 14.4671 71.3282L12.9945 71.0116C13.0746 70.7051 13.1397 70.3886 13.1999 70.077L14.6525 70.2077C14.6776 70.2077 14.7026 70.2127 14.7327 70.2127C15.1684 70.2127 15.5341 69.8811 15.5742 69.4389C15.6193 68.9716 15.2736 68.5546 14.8078 68.5144L13.4453 68.3887C13.4653 68.1275 13.4703 67.8611 13.4804 67.5948L15.0983 67.5345C15.5641 67.5144 15.9298 67.1225 15.9148 66.6502C15.8948 66.1829 15.504 65.8161 15.0332 65.8311L13.4502 65.8914C13.4352 65.7005 13.4052 65.5096 13.3851 65.3136L14.9581 65.1277C15.4239 65.0724 15.7545 64.6503 15.7044 64.183C15.6493 63.7157 15.2286 63.3841 14.7627 63.4344L13.1096 63.6253C13.1046 63.6102 13.1046 63.5952 13.0996 63.5801C13.7909 63.4645 14.4971 63.3891 15.2234 63.3891C20.6183 63.3891 25.2618 66.6753 27.2754 71.3583C27.0901 71.4237 26.9098 71.499 26.7244 71.5744L26.3838 70.9011C26.1734 70.484 25.6625 70.3132 25.2417 70.5293C24.826 70.7403 24.6607 71.2528 24.8711 71.6749L25.1816 72.2879C24.9011 72.4336 24.6306 72.5944 24.3651 72.7552L23.4234 71.6598C23.1178 71.3031 22.5819 71.2629 22.2262 71.5694C21.8706 71.8759 21.8305 72.4135 22.136 72.7703L22.9525 73.725C22.7321 73.8958 22.5268 74.0717 22.3164 74.2526L21.2795 73.4135C20.9138 73.117 20.3828 73.1773 20.0873 73.5441C19.7918 73.9109 19.8519 74.4435 20.2175 74.74L21.0841 75.4384C20.8787 75.6595 20.6834 75.8906 20.493 76.1268L19.1305 75.3681C18.7198 75.142 18.2038 75.2877 17.9784 75.6997C17.753 76.1117 17.8983 76.6293 18.309 76.8554L19.4762 77.5036C19.3259 77.7347 19.1906 77.9709 19.0554 78.2071L17.5076 77.6393C17.0668 77.4785 16.5809 77.7046 16.4206 78.1468C16.2603 78.5889 16.4857 79.0763 16.9265 79.2371L18.274 79.7295C18.1688 79.9657 18.0787 80.2119 17.9885 80.4581L16.3456 80.1064C15.8897 80.0059 15.4389 80.3024 15.3387 80.7596C15.2385 81.2169 15.5341 81.6691 15.9899 81.7696L17.4626 82.0861C17.3824 82.3926 17.3173 82.7092 17.2572 83.0207L15.8045 82.8901C15.3387 82.8499 14.9279 83.1916 14.8828 83.6589C14.8378 84.1262 15.1834 84.5432 15.6492 84.5834L17.0117 84.7091C16.9917 84.9703 16.9867 85.2367 16.9767 85.503L15.3587 85.5633C14.8929 85.5834 14.5272 85.9753 14.5422 86.4476C14.5623 86.9049 14.938 87.2666 15.3888 87.2666H15.4239L17.0068 87.2063C17.0218 87.3722 17.0469 87.538 17.0619 87.7038L15.5992 87.8696C15.1334 87.9199 14.7978 88.3419 14.8529 88.8092C14.903 89.2414 15.2686 89.563 15.6944 89.563C15.7245 89.563 15.7595 89.563 15.7896 89.5579L17.3374 89.3821C17.3474 89.4223 17.3524 89.4625 17.3624 89.5027C16.6662 89.6182 15.9598 89.6936 15.2335 89.6936C9.83865 89.6936 5.19514 86.4074 3.18146 81.7244L3.18164 81.7344ZM21.1602 88.2665C21.1652 88.2113 21.1802 88.156 21.1752 88.1007C21.1251 87.6334 20.7043 87.2968 20.2385 87.352L18.7507 87.5178C18.7357 87.3922 18.7206 87.2716 18.7106 87.146L19.998 87.0958C20.4638 87.0757 20.8295 86.6838 20.8145 86.2114C20.7944 85.7441 20.4037 85.3773 19.9329 85.3924L18.6856 85.4426C18.6956 85.2517 18.6956 85.0608 18.7106 84.8698L20.0981 84.9954C20.1232 84.9954 20.1482 85.0005 20.1783 85.0005C20.614 85.0005 20.9797 84.6688 21.0198 84.2267C21.0649 83.7594 20.7192 83.3423 20.2534 83.3021L18.961 83.1815C19.0111 82.9353 19.0662 82.6891 19.1263 82.4479L20.4538 82.7343C20.5139 82.7494 20.5741 82.7544 20.6342 82.7544C21.0249 82.7544 21.3755 82.4831 21.4607 82.0811C21.5609 81.6239 21.2653 81.1716 20.8095 81.0711L19.6724 80.8249C19.7425 80.6591 19.8076 80.4883 19.8828 80.3224L21.0549 80.7546C21.1501 80.7898 21.2503 80.8048 21.3454 80.8048C21.6911 80.8048 22.0167 80.5888 22.1419 80.2471C22.3022 79.8049 22.0768 79.3175 21.636 79.1567L20.6842 78.805C20.7794 78.6442 20.8796 78.4884 20.9798 78.3327L22.0918 78.9507C22.222 79.021 22.3623 79.0562 22.5026 79.0562C22.8031 79.0562 23.0886 78.8954 23.2439 78.6191C23.4693 78.207 23.3241 77.6895 22.9133 77.4634L22.0167 76.9659C22.1519 76.8102 22.2872 76.6594 22.4274 76.5087L23.4793 77.3579C23.6346 77.4835 23.825 77.5438 24.0103 77.5438C24.2608 77.5438 24.5062 77.4332 24.6715 77.2272C24.9671 76.8604 24.9069 76.3278 24.5413 76.0313L23.6747 75.3329C23.8049 75.2223 23.9402 75.1168 24.0804 75.0163L25.0522 76.1469C25.2225 76.3429 25.458 76.4434 25.6934 76.4434C25.8887 76.4434 26.0841 76.373 26.2444 76.2373C26.6 75.9308 26.6401 75.3932 26.3346 75.0364L25.493 74.0566C25.6433 73.9662 25.8036 73.8808 25.9589 73.8004L26.5049 74.8706C26.6552 75.1671 26.9507 75.3379 27.2613 75.3379C27.3915 75.3379 27.5217 75.3078 27.647 75.2475C28.0627 75.0364 28.228 74.5239 28.0176 74.1018L27.5067 73.0919C27.6219 73.0466 27.7321 73.0014 27.8473 72.9612C28.1679 74.1018 28.3532 75.2977 28.3532 76.5439C28.3532 81.6591 25.4228 86.0859 21.165 88.2666L21.1602 88.2665ZM21.1552 59.1981C20.9347 55.1029 21.2754 51.0077 22.1119 47.0282C23.7548 48.8924 25.2676 51.3896 26.3497 54.0629C29.7558 62.4693 35.271 68.529 43.11 72.4638C38.4614 71.9061 33.9582 70.3182 29.971 67.7506C26.3844 65.4442 23.4293 62.5143 21.1552 59.1981ZM47.5138 91.3306C46.5971 90.0844 46.3467 87.964 46.8175 85.3612C47.1832 83.3162 48.0197 80.9294 49.2771 78.3919C52.7835 79.0652 55.8391 81.0149 57.9179 83.9643C60.157 87.1348 60.9335 91.0592 60.137 94.8378C54.151 95.0387 49.262 93.7023 47.5138 91.3306ZM84.2108 86.8837C77.5034 91.2652 69.7741 93.9937 62.3313 94.6771C63.0527 90.5066 62.1109 86.2255 59.6464 82.7384C57.4073 79.5679 54.0611 77.3268 50.3143 76.4374C53.5653 70.7394 58.905 64.5389 66.2488 59.7447C72.9561 55.3632 80.6855 52.6348 88.1282 51.9514C87.4069 56.1219 88.3486 60.403 90.8132 63.8901C93.0523 67.0606 96.3985 69.3017 100.145 70.191C96.8942 75.8891 91.5545 82.0896 84.2108 86.8837ZM86.9608 67.3431L85.6484 68.1471L87.2413 70.7498C87.5469 71.2523 87.3916 71.9055 86.8907 72.212C86.7154 72.3175 86.525 72.3677 86.3397 72.3677C85.984 72.3677 85.6334 72.1869 85.433 71.8602L83.8401 69.2575L81.1652 70.9005L82.7582 73.5033C83.0637 74.0057 82.9084 74.659 82.4075 74.9654C82.2322 75.071 82.0419 75.1212 81.8565 75.1212C81.5009 75.1212 81.1502 74.9403 80.9499 74.6137L79.3569 72.011L76.6821 73.654L78.275 76.2567C78.5806 76.7592 78.4253 77.4124 77.9244 77.7189C77.749 77.8244 77.5587 77.8747 77.3733 77.8747C77.0177 77.8747 76.6671 77.6938 76.4667 77.3672L74.8738 74.7644L72.1989 76.4075L73.7918 79.0102C74.0974 79.5127 73.9421 80.1659 73.4412 80.4724C73.2659 80.5779 73.0755 80.6281 72.8902 80.6281C72.5345 80.6281 72.1839 80.4473 71.9835 80.1206L70.3906 77.5179L67.7157 79.1609L69.3087 81.7637C69.6142 82.2661 69.4589 82.9194 68.958 83.2259C68.7827 83.3314 68.5924 83.3816 68.407 83.3816C68.0514 83.3816 67.7007 83.2007 67.5004 82.8741L65.9074 80.2714L64.5951 81.0753C64.4198 81.1808 64.2294 81.2311 64.0441 81.2311C63.6884 81.2311 63.3378 81.0502 63.1374 80.7236C62.8318 80.2211 62.9871 79.5679 63.4881 79.2614L64.8004 78.4574L63.2075 75.8547C62.9019 75.3522 63.0572 74.699 63.5581 74.3925C64.059 74.086 64.7102 74.2418 65.0158 74.7443L66.6087 77.347L69.2835 75.704L67.6906 73.1012C67.3851 72.5988 67.5403 71.9455 68.0413 71.639C68.5422 71.3325 69.1934 71.4883 69.4989 71.9908L71.0918 74.5935L73.7667 72.9505L72.1737 70.3478C71.8682 69.8453 72.0235 69.1921 72.5244 68.8856C73.0253 68.5791 73.6765 68.7348 73.982 69.2373L75.575 71.8401L78.2498 70.1971L76.6569 67.5943C76.3513 67.0918 76.5066 66.4386 77.0075 66.1321C77.5084 65.8256 78.1596 65.9814 78.4652 66.4839L80.0581 69.0866L82.733 67.4436L81.14 64.8408C80.8345 64.3384 80.9897 63.6851 81.4907 63.3787C81.9916 63.0721 82.6428 63.2279 82.9483 63.7304L84.5412 66.3331L85.8536 65.5292C86.3545 65.2227 87.0057 65.3784 87.3112 65.8809C87.6168 66.3834 87.4617 67.0366 86.9608 67.3431Z" fill="#F5446A"/>
</g>
<defs>
<clipPath id="clip0_22_26">
<rect width="106" height="106" fill="white"/>
</clipPath>
</defs>
</svg>
