<svg width="106" height="106" viewBox="0 0 106 106" fill="none" xmlns="http://www.w3.org/2000/svg">
<path d="M97.9901 76.7353C97.999 76.7309 98.0034 76.7265 98.0122 76.7221C98.0211 76.7177 98.0255 76.7089 98.0343 76.7045C103.949 71.9871 106.878 64.4424 105.769 57.048C105.764 57.0172 105.76 56.9865 105.756 56.9557C105.442 54.9377 104.832 52.9374 103.896 51.0029C101.162 45.3492 96.2099 41.4539 90.5784 39.8448C90.5121 39.814 90.437 39.7921 90.3619 39.7833C85.7901 38.5303 80.7809 38.7853 76.1476 40.8252L73.8286 36.0288C74.1599 35.8793 74.4956 35.7386 74.8357 35.6023C75.1935 35.4616 75.3658 35.0572 75.2244 34.7011C75.0831 34.345 74.6767 34.1735 74.3189 34.3142C61.9331 39.2425 54.7502 52.2993 57.2335 65.3661C59.5171 77.3727 69.2619 86.1255 80.7905 87.7744V94.6107H74.9995C74.6152 94.6107 74.3016 94.9229 74.3016 95.3054C74.3016 95.6879 74.6152 96 74.9995 96H87.9733C88.3576 96 88.6712 95.6879 88.6712 95.3054C88.6712 94.9229 88.3576 94.6107 87.9733 94.6107H82.1823V87.9414C83.026 88.0205 83.8741 88.0601 84.7311 88.0601C86.4493 88.0601 88.1986 87.9018 89.9478 87.5721C92.3552 87.1193 94.6655 86.3587 96.852 85.3211C96.8653 85.3167 96.8829 85.3123 96.8962 85.3079C96.9138 85.2992 96.9271 85.286 96.9448 85.2772C97.4925 85.0134 98.0358 84.7364 98.5659 84.4375C98.9016 84.2484 99.0165 83.8264 98.8265 83.4922C98.6366 83.1581 98.2125 83.0438 97.8768 83.2329C97.5588 83.4131 97.2363 83.5846 96.9139 83.7516L94.5904 78.9552C95.8095 78.3045 96.9491 77.5615 97.9916 76.735L97.9901 76.7353ZM84.7698 79.9578C78.8242 79.9578 73.0603 77.2892 69.2517 72.5719C71.5928 71.7893 73.6336 72.4312 75.7847 73.1126C78.7355 74.0491 82.0793 75.1042 86.1696 71.9872C88.1221 70.5012 89.1336 71.1738 91.2495 72.8445C92.5261 73.8556 94.1163 75.1086 96.3293 75.8032C96.4662 75.8472 96.5104 75.8692 96.6297 76.0275C95.6226 76.7748 94.5359 77.4387 93.361 78.0014C90.587 79.3292 87.6543 79.9578 84.7698 79.9578ZM102.638 51.6014C103.442 53.2633 103.985 54.9822 104.294 56.7101L103.508 57.0662C103.393 57.1189 103.291 57.2025 103.221 57.308C101.776 59.427 101.37 59.3699 100.637 59.26C100.221 59.1985 99.709 59.1237 99.0199 59.2424C97.9554 59.4227 97.8539 60.9878 97.7346 64.228C97.7257 64.4522 97.7169 64.694 97.708 64.9402C95.4244 58.3852 92.8138 57.9894 90.8967 57.6949C89.7924 57.5278 89.2358 57.4399 88.8073 56.3012C87.7472 53.4831 88.3523 52.2214 89.2711 50.309C90.1899 48.3966 91.3207 46.0444 91.0601 41.4458C95.9632 43.0856 100.222 46.6115 102.638 51.6014ZM89.638 41.0281C89.9869 45.6004 88.94 47.781 88.0168 49.711C87.0627 51.7025 86.2367 53.4172 87.5044 56.7892C88.22 58.6928 89.532 58.8907 90.6893 59.0665C92.4075 59.3303 94.5456 59.6556 96.6172 66.0567C96.9927 67.2129 97.3151 68.0395 98.0043 68.0395C98.044 68.0395 98.0882 68.0351 98.1323 68.0307C99.0025 67.912 99.0379 66.9184 99.1306 64.2762C99.1748 63.0935 99.2455 61.1767 99.4619 60.5788C99.8286 60.5436 100.125 60.5832 100.434 60.6315C101.768 60.825 102.594 60.6535 104.263 58.2487L104.502 58.1432C105.16 64.5268 102.642 70.923 97.7171 75.157C97.4963 74.8712 97.24 74.6338 96.7453 74.48C94.7752 73.8645 93.3617 72.7477 92.1116 71.7586C90.1062 70.1714 88.2156 68.6767 85.3179 70.8837C81.8062 73.5611 79.0852 72.6994 76.2051 71.7893C73.8022 71.0288 71.3241 70.2462 68.3778 71.4069C67.8035 70.5759 67.2867 69.6967 66.8361 68.7646C66.0852 67.2083 65.5508 65.586 65.2238 63.9373C65.9748 63.6955 66.6329 63.269 67.1895 62.9041C67.6048 62.6316 68.1216 62.293 68.338 62.3018C71.5802 62.4337 74.9771 59.1101 75.9091 54.9071C76.8058 50.8536 75.1538 47.3892 71.4609 45.4593C72.8436 44.2327 74.3984 43.182 76.1167 42.3598C78.8863 41.0321 81.8194 40.4034 84.7083 40.4034C86.378 40.4078 88.0301 40.6193 89.638 41.0281ZM65.9791 53.6504C66.9377 50.9289 68.444 48.5022 70.3963 46.4842C75.2553 48.7396 74.9284 52.8898 74.5441 54.6088C73.7623 58.1259 70.9441 61.0187 68.3909 60.9133C67.7328 60.8869 67.1232 61.2826 66.4208 61.7398C65.9791 62.03 65.4976 62.3421 64.9985 62.5356C64.6407 59.5768 64.9632 56.5476 65.9791 53.6504ZM89.6821 86.2014C75.2687 88.914 61.3236 79.4529 58.5938 65.1077C56.3896 53.5142 62.2027 41.9251 72.565 36.632L74.8885 41.4328C70.0825 43.9301 66.4648 48.0758 64.6625 53.193C62.7852 58.5302 63.1121 64.2719 65.5725 69.3672C66.1423 70.5455 66.8094 71.6489 67.5602 72.6689C67.5691 72.6777 67.5735 72.6865 67.5823 72.6953C71.6373 78.2083 78.0953 81.343 84.7695 81.343C87.6408 81.343 90.5517 80.7627 93.3301 79.5404L95.6492 84.3325C93.7497 85.181 91.7537 85.8101 89.6821 86.2014ZM58.6515 72.77L50.0865 72.4666L57.3925 70.9542C57.768 70.8751 58.011 70.5102 57.9314 70.1321C57.8519 69.7584 57.4853 69.5166 57.1054 69.5957L44.9933 72.1017L44.9977 17.5599L78.8203 10.451C79.611 10.2839 80.3309 10.4598 80.9626 10.9653C81.5898 11.4709 81.9123 12.1392 81.9123 12.9437V37.4138C81.9123 37.7963 82.2259 38.1085 82.6102 38.1085C82.9945 38.1085 83.3081 37.7963 83.3081 37.4138L83.3037 17.8058L83.5599 17.7574C84.4964 17.5772 85.3799 17.7706 86.1175 18.307C86.8375 18.8301 87.2041 19.5159 87.2041 20.3337L87.2085 37.5366C87.2085 37.9191 87.5222 38.2313 87.9065 38.2313C88.2908 38.2313 88.6044 37.9191 88.6044 37.5366L88.6 20.3337C88.6 19.0632 88.0257 17.9772 86.9436 17.1859C85.8878 16.4165 84.6289 16.1439 83.3037 16.3901V12.9434C83.3037 11.7168 82.7957 10.6573 81.8416 9.88791C80.883 9.11414 79.7389 8.84156 78.533 9.09216L44.3 16.289L10.0669 9.09216C8.86104 8.83717 7.717 9.11414 6.75841 9.88791C5.79982 10.6617 5.29627 11.7168 5.29627 12.9434V16.3901C3.97107 16.1395 2.71214 16.4165 1.65641 17.1859C0.569771 17.9772 0 19.0632 0 20.3337V71.1344C0 72.2599 0.472645 73.3854 1.26775 74.1503C1.91267 74.7702 2.6945 75.0912 3.54261 75.0912C3.58236 75.0912 3.62212 75.0912 3.66187 75.0868L44.301 73.6492L58.6035 74.1548C58.9878 74.168 59.3102 73.869 59.3235 73.4865C59.3367 73.1084 59.0358 72.7832 58.6515 72.77ZM6.68729 12.9441C6.68729 12.1395 7.00533 11.4713 7.63699 10.9657C8.10964 10.5832 8.63971 10.3898 9.2095 10.3898C9.39502 10.3898 9.58496 10.4118 9.77933 10.4513L43.6019 17.5603V72.1066L8.71863 64.8833C7.52596 64.6371 6.69108 63.6083 6.69108 62.3905L6.68729 12.9441ZM3.60843 73.7019C2.96793 73.7238 2.50413 73.4161 2.2302 73.1523C1.70896 72.6511 1.38651 71.8818 1.38651 71.1387L1.39093 20.3335C1.39093 19.5158 1.75756 18.83 2.47757 18.3068C3.21524 17.7704 4.0987 17.577 5.03513 17.7572L5.29132 17.8056V62.3891C5.29132 64.2752 6.58113 65.8579 8.43193 66.2404L38.5092 72.4701L3.60843 73.7019ZM22.0588 45.53L22.4872 46.528C20.8219 46.4533 19.4614 46.783 18.6575 47.4732C18.1319 47.9217 17.858 48.5108 17.858 49.1746C17.858 51.3465 20.9103 53.7997 24.9654 54.8811C26.127 55.1889 27.2402 55.3428 28.2429 55.3428C29.6166 55.3428 30.7652 55.0526 31.5072 54.4899C32.1124 54.0282 32.4304 53.404 32.4304 52.6873C32.4304 50.7661 30.1512 48.9284 27.6819 47.8161L28.1987 46.8929C28.5256 46.3038 28.9011 45.6927 29.303 45.0464C31.6618 41.2083 34.5949 36.4339 30.8491 31.4304C29.4091 29.5092 27.4522 28.1419 25.3276 27.5747C22.9864 26.9504 20.7734 27.4077 19.2539 28.8321C15.8394 32.0239 18.684 38.1701 20.9677 43.1077C21.3609 43.965 21.7319 44.7739 22.0588 45.53ZM31.0346 52.6918C31.0346 52.8676 30.9948 53.1314 30.6547 53.3908C29.8949 53.9711 27.9514 54.2437 25.3231 53.5403C21.7451 52.5863 19.2538 50.4759 19.2538 49.1747C19.2538 48.9197 19.3554 48.713 19.5719 48.524C20.0578 48.1064 21.2372 47.7546 23.1101 47.9657L24.5015 51.2014C24.6076 51.4432 24.8417 51.6103 25.1067 51.6191H25.142C25.3938 51.6191 25.6279 51.4828 25.7516 51.263L27.0017 49.0296C29.6256 50.177 31.0346 51.7333 31.0346 52.6918ZM20.208 29.848C21.0163 29.0918 22.1074 28.6962 23.3221 28.6962C23.8477 28.6962 24.3999 28.7709 24.9609 28.9204C26.7542 29.3996 28.4902 30.6174 29.7226 32.2617C32.9074 36.5086 30.3543 40.6632 28.1059 44.3257C27.6995 44.9851 27.3152 45.6094 26.9751 46.2205L25.2214 49.3596L23.3352 44.9852C23.0039 44.2114 22.624 43.3981 22.2265 42.532C20.1327 37.9994 17.5223 32.3544 20.208 29.848ZM24.9609 38.8958C25.2833 38.9793 25.6014 39.0233 25.9106 39.0233C26.5864 39.0233 27.2136 38.8255 27.7173 38.4386C28.4373 37.889 28.8304 37.0405 28.8304 36.0425C28.8304 34.073 27.2888 32.1165 25.3187 31.5934C24.2983 31.3208 23.2955 31.4879 22.5579 32.0462C21.8379 32.5958 21.4448 33.4443 21.4448 34.4423C21.4492 36.4162 22.9908 38.3683 24.9609 38.8958ZM23.4148 33.1497C23.6754 32.9518 24.0023 32.8507 24.3645 32.8507C24.5545 32.8507 24.7577 32.8771 24.9608 32.9342C26.3037 33.2904 27.4389 34.7148 27.4389 36.0425C27.4389 36.5964 27.2357 37.058 26.8691 37.3394C26.4759 37.6383 25.9238 37.7175 25.3186 37.5548C23.9758 37.1943 22.8406 35.7743 22.8406 34.4466C22.845 33.8882 23.0482 33.4266 23.4148 33.1497Z" fill="#F5446A"/>
</svg>
