<svg width="106" height="106" viewBox="0 0 106 106" fill="none" xmlns="http://www.w3.org/2000/svg">
<path d="M99.0929 31.5505H86.8563L58.9654 8.29771C59.1735 7.67265 59.314 7.01633 59.314 6.31832C59.314 2.8336 56.4838 0 53.0032 0C49.5226 0 46.6923 2.8336 46.6923 6.31832C46.6923 7.01631 46.8328 7.67778 47.0409 8.30291L19.1594 31.5504H6.91239C4.75328 31.5504 3 33.311 3 35.4674V102.083C3 104.245 4.75848 106 6.91239 106H99.0876C101.247 106 103 104.239 103 102.083V35.4674C103 33.3058 101.242 31.5504 99.0876 31.5504L99.0929 31.5505ZM53.0033 2.12113C55.3133 2.12113 57.1966 4.00677 57.1966 6.31939C57.1966 8.63214 55.3132 10.5176 53.0033 10.5176C50.6934 10.5176 48.81 8.632 48.81 6.31939C48.81 4.00664 50.6934 2.12113 53.0033 2.12113ZM48.066 10.2104C49.221 11.6794 50.9951 12.6377 53.0033 12.6377C55.0115 12.6377 56.7855 11.6741 57.9457 10.2052L83.5484 31.5512H22.4699L48.066 10.2104ZM100.888 102.088C100.888 103.078 100.082 103.885 99.0933 103.885L6.91274 103.88C5.92423 103.88 5.11776 103.073 5.11776 102.083V35.4676C5.11776 34.4779 5.92418 33.6705 6.91274 33.6705H99.088C100.076 33.6705 100.883 34.4778 100.883 35.4676V102.083L100.888 102.088ZM94.9573 70.6534V39.6772C94.9573 39.0938 94.4838 38.6146 93.8959 38.6146L12.1107 38.6094C11.528 38.6094 11.0493 39.0834 11.0493 39.672V97.8854C11.0493 98.4688 11.5228 98.948 12.1107 98.948H93.9013C94.4839 98.948 94.9626 98.474 94.9626 97.8854V70.6535L94.9573 70.6534ZM92.8399 40.7333V68.9866C89.4269 67.1947 86.7268 64.4861 84.3128 62.0588C79.1725 56.9021 74.3185 52.0267 65.4587 59.3242L65.2662 59.4805C62.5556 61.7099 61.1301 62.887 56.557 65.3091C55.8806 64.7466 55.1991 64.1684 54.5436 63.6059C49.0392 58.9128 43.8365 54.4748 37.8072 56.5479C32.4068 58.4022 28.7755 62.0954 24.5717 66.3718C21.4553 69.5387 17.9538 73.0912 13.1675 76.4039V40.7339L92.8399 40.7333ZM13.167 96.8265V78.9608C18.7442 75.3094 22.641 71.3612 26.0799 67.8661C30.0963 63.7823 33.5613 60.2508 38.4882 58.5631C43.3787 56.8858 48.1339 60.9382 53.1655 65.2303C53.9147 65.871 54.6898 66.5273 55.4651 67.1732C55.4911 67.194 55.5119 67.2097 55.538 67.2357C55.6472 67.3815 55.7773 67.4857 55.9334 67.5586C60.3712 71.2257 62.7385 73.08 67.9462 75.9136C68.4613 76.1948 69.1012 76.0021 69.3821 75.4916C69.6631 74.976 69.4706 74.3353 68.9607 74.054C64.3147 71.5226 62.0985 69.8766 58.3213 66.7774C62.473 64.5323 63.9506 63.3186 66.6091 61.1258L66.8016 60.9695C74.1738 54.896 77.6128 58.3442 82.8108 63.5635C85.5578 66.3241 88.6689 69.4181 92.8362 71.335V74.7989C80.1209 77.7419 69.7162 77.9085 60.5222 78.044C47.2607 78.2367 35.8039 78.4034 22.7462 86.8886C22.2572 87.2063 22.1167 87.8626 22.434 88.3523C22.6369 88.6649 22.9751 88.8367 23.3237 88.8367C23.5214 88.8367 23.7191 88.7794 23.9012 88.6648C36.4552 80.513 47.0892 80.3567 60.5584 80.164C69.7411 80.0286 80.1304 79.8567 92.8405 76.9711V96.8329L13.1676 96.8225L13.167 96.8265ZM55.6831 57.1255C59.0544 57.1255 61.8015 54.3752 61.8015 50.9998C61.8015 47.6244 59.0545 44.8742 55.6831 44.8742C52.3066 44.8742 49.5648 47.6244 49.5648 50.9998C49.5648 54.3804 52.3118 57.1255 55.6831 57.1255ZM55.6831 46.9942C57.889 46.9942 59.684 48.7913 59.684 50.9998C59.684 53.2083 57.889 55.0054 55.6831 55.0054C53.4773 55.0054 51.6823 53.2083 51.6823 50.9998C51.6823 48.7913 53.4773 46.9942 55.6831 46.9942Z" fill="#F5446A"/>
</svg>
