<svg width="106" height="106" viewBox="0 0 106 106" fill="none" xmlns="http://www.w3.org/2000/svg">
<path d="M90.6764 0.000784707H15.4204C12.0303 0.000784707 9.26128 2.76977 9.26128 6.15992L9.2561 91.1613C9.2561 99.3494 15.9069 106 24.0948 106H95.2619C95.8053 106 96.3229 105.721 96.6127 105.26C96.9026 104.794 96.944 104.214 96.7059 103.723C94.6925 99.5198 93.6833 95.3896 93.6728 91.2386C93.6728 91.2127 93.6883 91.1868 93.6883 91.161C93.6883 91.1351 93.6728 91.1092 93.6728 91.0833C93.6728 86.9479 94.6924 82.8021 96.7059 78.5993C96.7059 78.5838 96.7059 78.5734 96.7214 78.5579C96.7214 78.532 96.7369 78.5061 96.7473 78.4803C96.8146 78.3198 96.8404 78.149 96.8508 77.9782V77.9264V6.15913C96.8508 2.76899 94.0818 0 90.6917 0L90.6764 0.000784707ZM93.6577 6.15992V76.3173L31.7139 76.3225V3.17854H90.6764C92.3172 3.17854 93.6577 4.51917 93.6577 6.15992ZM12.4233 6.15992C12.4233 4.51917 13.7638 3.17867 15.4045 3.17867H28.5199V76.3173H24.0687C19.338 76.3173 15.1249 78.5429 12.4076 82.0004V6.16005L12.4233 6.15992ZM24.0843 102.817C17.6559 102.817 12.4233 97.5847 12.4233 91.1563V91.1304C12.4233 84.7177 17.6559 79.4953 24.0843 79.4953H92.8134C91.4729 82.8492 90.7586 86.198 90.5723 89.5674L22.4381 89.5726C21.5634 89.5726 20.8492 90.2869 20.8492 91.1616C20.8492 92.0363 21.5635 92.7505 22.4381 92.7505H90.5829C90.7692 96.1148 91.4835 99.4686 92.824 102.823H24.0949L24.0843 102.817Z" fill="#F5446A"/>
<path d="M46.9263 35.7756V57.3996C46.9263 59.1748 48.3703 60.6344 50.1611 60.6344H75.2328C77.008 60.6344 78.4677 59.1904 78.4677 57.3996V35.7756C82.7326 35.3408 86.0709 31.7229 86.0709 27.3494C86.0709 22.9758 82.8774 19.4667 78.6488 18.9491C78.5711 18.9491 78.5039 18.9336 78.4211 18.9336C75.8384 18.8922 48.1064 18.8818 47.8109 18.8818C47.5211 18.8818 47.1898 18.8974 46.8689 18.9336C46.8016 18.9336 46.7343 18.9336 46.6826 18.9595C42.4798 19.5185 39.3278 23.1053 39.3278 27.3597C39.3278 31.6142 42.6661 35.351 46.931 35.7859L46.9263 35.7756ZM75.227 57.4512H69.0005V41.3233C69.0005 40.4486 68.2863 39.7344 67.4116 39.7344C66.5369 39.7344 65.8226 40.4487 65.8226 41.3233V57.4512H59.5702V41.3233C59.5702 40.4486 58.856 39.7344 57.9813 39.7344C57.1066 39.7344 56.3924 40.4487 56.3924 41.3233V57.4512H50.1659C50.1659 57.4512 50.1142 57.4254 50.1142 57.3995V35.4853C52.5261 34.7969 54.5394 33.0734 55.5591 30.7547H69.8294C70.849 33.0734 72.8624 34.797 75.2743 35.4853V57.3995C75.2743 57.3995 75.2484 57.4512 75.2226 57.4512H75.227ZM47.1489 22.1002H47.1748C47.387 22.0744 47.5992 22.0588 47.7959 22.0588C49.1053 22.0588 76.6663 22.0744 78.2868 22.1106C80.9109 22.4574 82.8829 24.6933 82.8829 27.3588C82.8829 30.2727 80.5124 32.6588 77.5984 32.6588C75.2124 32.6588 73.1214 31.0543 72.4951 28.7614C72.3087 28.073 71.6721 27.5969 70.9578 27.5969H54.447C53.7327 27.5969 53.0961 28.073 52.9097 28.7614C52.2886 31.0543 50.1821 32.6588 47.8063 32.6588C44.8924 32.6588 42.5218 30.2882 42.5218 27.3588C42.5218 24.6829 44.5248 22.4314 47.1748 22.1106L47.1489 22.1002Z" fill="#F5446A"/>
</svg>
