<svg xmlns="http://www.w3.org/2000/svg" version="1.1" viewBox="-5.0 -10.0 110.0 135.0">
 <path d="m84.605 33.914h-9.1875l-20.941-17.438c0.15625-0.46875 0.26172-0.96094 0.26172-1.4844 0-2.6133-2.125-4.7383-4.7383-4.7383s-4.7383 2.125-4.7383 4.7383c0 0.52344 0.10547 1.0195 0.26172 1.4883l-20.934 17.434h-9.1953c-1.6211 0-2.9375 1.3203-2.9375 2.9375v49.957c0 1.6211 1.3203 2.9375 2.9375 2.9375h69.207c1.6211 0 2.9375-1.3203 2.9375-2.9375v-49.957c0-1.6211-1.3203-2.9375-2.9375-2.9375zm-34.605-22.07c1.7344 0 3.1484 1.4141 3.1484 3.1484 0 1.7344-1.4141 3.1484-3.1484 3.1484s-3.1484-1.4141-3.1484-3.1484c0-1.7344 1.4141-3.1484 3.1484-3.1484zm-3.707 6.0664c0.86719 1.1016 2.1992 1.8203 3.707 1.8203s2.8398-0.72266 3.7109-1.8242l19.223 16.008h-45.859zm39.66 68.902c0 0.74219-0.60547 1.3477-1.3477 1.3477l-69.211-0.003906c-0.74219 0-1.3477-0.60547-1.3477-1.3477v-49.957c0-0.74219 0.60547-1.3477 1.3477-1.3477h69.207c0.74219 0 1.3477 0.60547 1.3477 1.3477v49.957zm-4.4531-23.574v-23.23c0-0.4375-0.35547-0.79687-0.79688-0.79687l-61.406-0.003907c-0.4375 0-0.79688 0.35547-0.79688 0.79688v43.656c0 0.4375 0.35547 0.79688 0.79688 0.79688h61.41c0.4375 0 0.79688-0.35547 0.79688-0.79688v-20.422zm-1.5898-22.438v21.188c-2.5625-1.3438-4.5898-3.375-6.4023-5.1953-3.8594-3.8672-7.5039-7.5234-14.156-2.0508l-0.14453 0.11719c-2.0352 1.6719-3.1055 2.5547-6.5391 4.3711-0.50781-0.42188-1.0195-0.85547-1.5117-1.2773-4.1328-3.5195-8.0391-6.8477-12.566-5.293-4.0547 1.3906-6.7812 4.1602-9.9375 7.3672-2.3398 2.375-4.9688 5.0391-8.5625 7.5234v-26.75zm-59.82 42.066v-13.398c4.1875-2.7383 7.1133-5.6992 9.6953-8.3203 3.0156-3.0625 5.6172-5.7109 9.3164-6.9766 3.6719-1.2578 7.2422 1.7812 11.02 5 0.5625 0.48047 1.1445 0.97266 1.7266 1.457 0.019532 0.015625 0.035156 0.027344 0.054688 0.046875 0.082031 0.10938 0.17969 0.1875 0.29688 0.24219 3.332 2.75 5.1094 4.1406 9.0195 6.2656 0.38672 0.21094 0.86719 0.066406 1.0781-0.31641 0.21094-0.38672 0.066406-0.86719-0.31641-1.0781-3.4883-1.8984-5.1523-3.1328-7.9883-5.457 3.1172-1.6836 4.2266-2.5938 6.2227-4.2383l0.14453-0.11719c5.5352-4.5547 8.1172-1.9688 12.02 1.9453 2.0625 2.0703 4.3984 4.3906 7.5273 5.8281v2.5977c-9.5469 2.207-17.359 2.332-24.262 2.4336-9.957 0.14453-18.559 0.26953-28.363 6.6328-0.36719 0.23828-0.47266 0.73047-0.23438 1.0977 0.15234 0.23438 0.40625 0.36328 0.66797 0.36328 0.14844 0 0.29688-0.042969 0.43359-0.12891 9.4258-6.1133 17.41-6.2305 27.523-6.375 6.8945-0.10156 14.695-0.23047 24.238-2.3945v14.895l-59.82-0.007813zm31.922-29.773c2.5312 0 4.5938-2.0625 4.5938-4.5938s-2.0625-4.5938-4.5938-4.5938c-2.5352 0-4.5938 2.0625-4.5938 4.5938 0 2.5352 2.0625 4.5938 4.5938 4.5938zm0-7.5977c1.6562 0 3.0039 1.3477 3.0039 3.0039s-1.3477 3.0039-3.0039 3.0039-3.0039-1.3477-3.0039-3.0039 1.3477-3.0039 3.0039-3.0039z"/>
<text x="0.0" y="117.5" font-size="5.0" font-weight="bold" font-family="Arbeit Regular, Helvetica, Arial-Unicode, Arial, Sans-serif" fill="#000000">Created by Isaac haq</text><text x="0.0" y="122.5" font-size="5.0" font-weight="bold" font-family="Arbeit Regular, Helvetica, Arial-Unicode, Arial, Sans-serif" fill="#000000">from Noun Project</text></svg>