<svg xmlns="http://www.w3.org/2000/svg" version="1.1" viewBox="-5.0 -10.0 110.0 135.0">
 <path d="m89.789 71.535c0.007813-0.003906 0.011719-0.007812 0.019532-0.011718 0.007812-0.003907 0.011718-0.011719 0.019531-0.015626 5.2305-4.1914 7.8203-10.895 6.8398-17.465-0.003907-0.027344-0.007813-0.054688-0.011719-0.082031-0.27734-1.793-0.81641-3.5703-1.6445-5.2891-2.418-5.0234-6.7969-8.4844-11.777-9.9141-0.058594-0.027343-0.125-0.046874-0.19141-0.054687-4.043-1.1133-8.4727-0.88672-12.57 0.92578l-2.0508-4.2617c0.29297-0.13281 0.58984-0.25781 0.89062-0.37891 0.31641-0.125 0.46875-0.48438 0.34375-0.80078s-0.48438-0.46875-0.80078-0.34375c-10.953 4.3789-17.305 15.98-15.109 27.59 2.0195 10.668 10.637 18.445 20.832 19.91v6.0742h-5.1211c-0.33984 0-0.61719 0.27734-0.61719 0.61719s0.27734 0.61719 0.61719 0.61719h11.473c0.33984 0 0.61719-0.27734 0.61719-0.61719s-0.27734-0.61719-0.61719-0.61719h-5.1211v-5.9258c0.74609 0.070312 1.4961 0.10547 2.2539 0.10547 1.5195 0 3.0664-0.14062 4.6133-0.43359 2.1289-0.40234 4.1719-1.0781 6.1055-2 0.011719-0.003906 0.027344-0.007812 0.039062-0.011718 0.015626-0.007813 0.027344-0.019532 0.042969-0.027344 0.48438-0.23438 0.96484-0.48047 1.4336-0.74609 0.29688-0.16797 0.39844-0.54297 0.23047-0.83984-0.16797-0.29687-0.54297-0.39844-0.83984-0.23047-0.28125 0.16016-0.56641 0.3125-0.85156 0.46094l-2.0547-4.2617c1.0781-0.57812 2.0859-1.2383 3.0078-1.9727zm-11.691 2.8633c-5.2578 0-10.355-2.3711-13.723-6.5625 2.0703-0.69531 3.875-0.125 5.7773 0.48047 2.6094 0.83203 5.5664 1.7695 9.1836-1 1.7266-1.3203 2.6211-0.72266 4.4922 0.76172 1.1289 0.89844 2.5352 2.0117 4.4922 2.6289 0.12109 0.039063 0.16016 0.058594 0.26563 0.19922-0.89063 0.66406-1.8516 1.2539-2.8906 1.7539-2.4531 1.1797-5.0469 1.7383-7.5977 1.7383zm15.801-25.195c0.71094 1.4766 1.1914 3.0039 1.4648 4.5391l-0.69531 0.31641c-0.10156 0.046875-0.19141 0.12109-0.25391 0.21484-1.2773 1.8828-1.6367 1.832-2.2852 1.7344-0.36719-0.054687-0.82031-0.12109-1.4297-0.015624-0.94141 0.16016-1.0312 1.5508-1.1367 4.4297-0.007812 0.19922-0.015625 0.41406-0.023438 0.63281-2.0195-5.8242-4.3281-6.1758-6.0234-6.4375-0.97656-0.14844-1.4688-0.22656-1.8477-1.2383-0.9375-2.5039-0.40234-3.625 0.41016-5.3242 0.8125-1.6992 1.8125-3.7891 1.582-7.875 4.3359 1.457 8.1016 4.5898 10.238 9.0234zm-11.496-9.3945c0.30859 4.0625-0.61719 6-1.4336 7.7148-0.84375 1.7695-1.5742 3.293-0.45312 6.2891 0.63281 1.6914 1.793 1.8672 2.8164 2.0234 1.5195 0.23437 3.4102 0.52344 5.2422 6.2109 0.33203 1.0273 0.61719 1.7617 1.2266 1.7617 0.035157 0 0.074219-0.003906 0.11328-0.007813 0.76953-0.10547 0.80078-0.98828 0.88281-3.3359 0.039063-1.0508 0.10156-2.7539 0.29297-3.2852 0.32422-0.03125 0.58594 0.003906 0.85938 0.046874 1.1797 0.17188 1.9102 0.019532 3.3867-2.1172l0.21094-0.09375c0.58203 5.6719-1.6445 11.355-6 15.117-0.19531-0.25391-0.42188-0.46484-0.85938-0.60156-1.7422-0.54688-2.9922-1.5391-4.0977-2.418-1.7734-1.4102-3.4453-2.7383-6.0078-0.77734-3.1055 2.3789-5.5117 1.6133-8.0586 0.80469-2.125-0.67578-4.3164-1.3711-6.9219-0.33984-0.50781-0.73828-0.96484-1.5195-1.3633-2.3477-0.66406-1.3828-1.1367-2.8242-1.4258-4.2891 0.66406-0.21484 1.2461-0.59375 1.7383-0.91797 0.36719-0.24219 0.82422-0.54297 1.0156-0.53516 2.8672 0.11719 5.8711-2.8359 6.6953-6.5703 0.79297-3.6016-0.66797-6.6797-3.9336-8.3945 1.2227-1.0898 2.5977-2.0234 4.1172-2.7539 2.4492-1.1797 5.043-1.7383 7.5977-1.7383 1.4766 0.003906 2.9375 0.19141 4.3594 0.55469zm-20.922 11.215c0.84766-2.418 2.1797-4.5742 3.9062-6.3672 4.2969 2.0039 4.0078 5.6914 3.668 7.2188-0.69141 3.125-3.1836 5.6953-5.4414 5.6016-0.58203-0.023437-1.1211 0.32813-1.7422 0.73438-0.39062 0.25781-0.81641 0.53516-1.2578 0.70703-0.31641-2.6289-0.03125-5.3203 0.86719-7.8945zm20.961 28.922c-12.746 2.4102-25.078-5.9961-27.492-18.742-1.9492-10.301 3.1914-20.598 12.355-25.301l2.0547 4.2656c-4.25 2.2188-7.4492 5.9023-9.043 10.449-1.6602 4.7422-1.3711 9.8438 0.80469 14.371 0.50391 1.0469 1.0938 2.0273 1.7578 2.9336 0.007813 0.007813 0.011719 0.015625 0.019532 0.023437 3.5859 4.8984 9.2969 7.6836 15.199 7.6836 2.5391 0 5.1133-0.51562 7.5703-1.6016l2.0508 4.2578c-1.6797 0.75391-3.4453 1.3125-5.2773 1.6602zm-27.441-11.934-7.5742-0.26953 6.4609-1.3438c0.33203-0.070313 0.54688-0.39453 0.47656-0.73047-0.070312-0.33203-0.39453-0.54688-0.73047-0.47656l-10.711 2.2266 0.003906-48.461 29.91-6.3164c0.69922-0.14844 1.3359 0.007813 1.8945 0.45703 0.55469 0.44922 0.83984 1.043 0.83984 1.7578v21.742c0 0.33984 0.27734 0.61719 0.61719 0.61719s0.61719-0.27734 0.61719-0.61719l-0.003907-17.422 0.22656-0.042969c0.82812-0.16016 1.6094 0.011719 2.2617 0.48828 0.63672 0.46484 0.96094 1.0742 0.96094 1.8008l0.003906 15.285c0 0.33984 0.27734 0.61719 0.61719 0.61719s0.61719-0.27734 0.61719-0.61719l-0.003906-15.285c0-1.1289-0.50781-2.0938-1.4648-2.7969-0.93359-0.68359-2.0469-0.92578-3.2188-0.70703v-3.0625c0-1.0898-0.44922-2.0312-1.293-2.7148-0.84766-0.6875-1.8594-0.92969-2.9258-0.70703l-30.273 6.3945-30.273-6.3945c-1.0664-0.22656-2.0781 0.019531-2.9258 0.70703s-1.293 1.625-1.293 2.7148v3.0625c-1.1719-0.22266-2.2852 0.023437-3.2188 0.70703-0.96094 0.70312-1.4648 1.668-1.4648 2.7969v45.137c0 1 0.41797 2 1.1211 2.6797 0.57031 0.55078 1.2617 0.83594 2.0117 0.83594 0.035156 0 0.070313 0 0.10547-0.003907l35.938-1.2773 12.648 0.44922c0.33984 0.011718 0.625-0.25391 0.63672-0.59375 0.011719-0.33594-0.25391-0.625-0.59375-0.63672zm-45.953-53.156c0-0.71484 0.28125-1.3086 0.83984-1.7578 0.41797-0.33984 0.88672-0.51172 1.3906-0.51172 0.16406 0 0.33203 0.019531 0.50391 0.054687l29.91 6.3164v48.465l-30.848-6.418c-1.0547-0.21875-1.793-1.1328-1.793-2.2148zm-2.7227 53.984c-0.56641 0.019531-0.97656-0.25391-1.2188-0.48828-0.46094-0.44531-0.74609-1.1289-0.74609-1.7891l0.003906-45.141c0-0.72656 0.32422-1.3359 0.96094-1.8008 0.65234-0.47656 1.4336-0.64844 2.2617-0.48828l0.22656 0.042969v39.613c0 1.6758 1.1406 3.082 2.7773 3.4219l26.598 5.5352zm16.316-25.031 0.37891 0.88672c-1.4727-0.066406-2.6758 0.22656-3.3867 0.83984-0.46484 0.39844-0.70703 0.92188-0.70703 1.5117 0 1.9297 2.6992 4.1094 6.2852 5.0703 1.0273 0.27344 2.0117 0.41016 2.8984 0.41016 1.2148 0 2.2305-0.25781 2.8867-0.75781 0.53516-0.41016 0.81641-0.96484 0.81641-1.6016 0-1.707-2.0156-3.3398-4.1992-4.3281l0.45703-0.82031c0.28906-0.52344 0.62109-1.0664 0.97656-1.6406 2.0859-3.4102 4.6797-7.6523 1.3672-12.098-1.2734-1.707-3.0039-2.9219-4.8828-3.4258-2.0703-0.55469-4.0273-0.14844-5.3711 1.1172-3.0195 2.8359-0.50391 8.2969 1.5156 12.684 0.34766 0.76172 0.67578 1.4805 0.96484 2.1523zm7.9375 6.3633c0 0.15625-0.035156 0.39062-0.33594 0.62109-0.67188 0.51562-2.3906 0.75781-4.7148 0.13281-3.1641-0.84766-5.3672-2.7227-5.3672-3.8789 0-0.22656 0.089844-0.41016 0.28125-0.57812 0.42969-0.37109 1.4727-0.68359 3.1289-0.49609l1.2305 2.875c0.09375 0.21484 0.30078 0.36328 0.53516 0.37109h0.03125c0.22266 0 0.42969-0.12109 0.53906-0.31641l1.1055-1.9844c2.3203 1.0195 3.5664 2.4023 3.5664 3.2539zm-9.5742-20.297c0.71484-0.67188 1.6797-1.0234 2.7539-1.0234 0.46484 0 0.95313 0.066407 1.4492 0.19922 1.5859 0.42578 3.1211 1.5078 4.2109 2.9688 2.8164 3.7734 0.55859 7.4648-1.4297 10.719-0.35938 0.58594-0.69922 1.1406-1 1.6836l-1.5508 2.7891-1.668-3.8867c-0.29297-0.6875-0.62891-1.4102-0.98047-2.1797-1.8516-4.0273-4.1602-9.043-1.7852-11.27zm4.2031 8.0391c0.28516 0.074219 0.56641 0.11328 0.83984 0.11328 0.59766 0 1.1523-0.17578 1.5977-0.51953 0.63672-0.48828 0.98438-1.2422 0.98438-2.1289 0-1.75-1.3633-3.4883-3.1055-3.9531-0.90234-0.24219-1.7891-0.09375-2.4414 0.40234-0.63672 0.48828-0.98438 1.2422-0.98438 2.1289 0.003906 1.7539 1.3672 3.4883 3.1094 3.957zm-1.3672-5.1055c0.23047-0.17578 0.51953-0.26562 0.83984-0.26562 0.16797 0 0.34766 0.023437 0.52734 0.074219 1.1875 0.31641 2.1914 1.582 2.1914 2.7617 0 0.49219-0.17969 0.90234-0.50391 1.1523-0.34766 0.26562-0.83594 0.33594-1.3711 0.19141-1.1875-0.32031-2.1914-1.582-2.1914-2.7617 0.003907-0.49609 0.18359-0.90625 0.50781-1.1523z"/>
<text x="0.0" y="117.5" font-size="5.0" font-weight="bold" font-family="Arbeit Regular, Helvetica, Arial-Unicode, Arial, Sans-serif" fill="#000000">Created by Naya Putri</text><text x="0.0" y="122.5" font-size="5.0" font-weight="bold" font-family="Arbeit Regular, Helvetica, Arial-Unicode, Arial, Sans-serif" fill="#000000">from Noun Project</text></svg>