<svg xmlns="http://www.w3.org/2000/svg" xmlns:xlink="http://www.w3.org/1999/xlink" version="1.1" x="0px" y="0px" viewBox="0 0 100 125" enable-background="new 0 0 100 100" xml:space="preserve"><g><rect x="29.7" y="66.5" fill="#000000" width="38.5" height="5.8"/><polygon fill="#000000" points="19,25 19,16.5 18.1,16.5 18.1,25 11,45 26.1,45  "/><polygon fill="#000000" points="80.2,24.9 80.2,16.7 79.2,16.7 79.2,24.9 72.1,44.9 87.2,44.9  "/><polygon fill="#000000" points="49.4,15.7 49.4,5.6 48.4,5.6 48.4,15.8 38.4,38 59.4,38  "/><path fill="#000000" d="M22.9,19.7c4.1,0.7,7.1-2,7.1-2s-2.3,1.1-5.2-0.5c-3-1.6-5.2-0.8-5.2-0.8v3.4l0.9-0.1   C21.3,19.6,22.1,19.6,22.9,19.7z"/><path fill="#000000" d="M53.2,8.9c4.1,0.7,7.1-2,7.1-2S58.1,8,55.1,6.4c-3-1.6-5.2-0.8-5.2-0.8V9l0.9-0.1   C51.6,8.7,52.4,8.7,53.2,8.9z"/><path fill="#000000" d="M84,19.9c4.1,0.7,7.1-2,7.1-2s-2.3,1.1-5.2-0.5c-3-1.6-5.2-0.8-5.2-0.8V20l0.9-0.1   C82.4,19.7,83.2,19.7,84,19.9z"/><path fill="#000000" d="M29.7,95.3h11.6v-7.2c0-4.2,3.4-7.6,7.6-7.6c4.2,0,7.6,3.4,7.6,7.6v7.2h11.6V74.9H29.7V95.3z M60.4,79.8h4   v4h-4V79.8z M33.3,79.8h4v4h-4V79.8z"/><path fill="#000000" d="M10.1,59.4h-2v3.4h2v32.5H27V62.9h2v-3.4h-2H10.1z M21.7,76.2h-6.3v-4.6c0-1.7,1.4-3.1,3.1-3.1   c1.7,0,3.1,1.4,3.1,3.1V76.2z"/><polygon fill="#000000" points="24.2,48.6 21.7,48.6 21.7,46.4 19.8,46.4 19.8,48.6 17.3,48.6 17.3,46.4 15.4,46.4 15.4,48.6    12.9,48.6 12.9,46.4 8.1,46.4 8.1,49.6 11,49.6 11,57.3 26.1,57.3 26.1,49.6 29,49.6 29,46.4 24.2,46.4  "/><path fill="#000000" d="M71.3,59.3h-2v3.4h2v32.5h16.9V62.8h2v-3.4h-2H71.3z M82.9,76.1h-6.3v-4.6c0-1.7,1.4-3.1,3.1-3.1   s3.1,1.4,3.1,3.1V76.1z"/><polygon fill="#000000" points="85.3,48.5 82.9,48.5 82.9,46.3 81,46.3 81,48.5 78.5,48.5 78.5,46.3 76.6,46.3 76.6,48.5    74.1,48.5 74.1,46.3 69.3,46.3 69.3,49.5 72.2,49.5 72.2,57.2 87.3,57.2 87.3,49.5 90.2,49.5 90.2,46.3 85.3,46.3  "/><path fill="#000000" d="M38.9,63.8h20.1V45h3.5v-5.2H60v1.8h-2.5v-1.8h-2.5v1.7h-2.5v-1.7h-2.5v1.8h-2.5v-1.8h-2.5v1.8h-2.5v-1.8   h-2.5v1.8h-2.5v-1.8h-2.5V45h3.5V63.8z M45.8,51.9c0-1.7,1.4-3.1,3.1-3.1s3.1,1.4,3.1,3.1v4.6h-6.3V51.9z"/></g><text x="0" y="115" fill="#000000" font-size="5px" font-weight="bold" font-family="'Helvetica Neue', Helvetica, Arial-Unicode, Arial, Sans-serif">Created by parkjisun</text><text x="0" y="120" fill="#000000" font-size="5px" font-weight="bold" font-family="'Helvetica Neue', Helvetica, Arial-Unicode, Arial, Sans-serif">from the Noun Project</text></svg>