<svg xmlns="http://www.w3.org/2000/svg" version="1.1" viewBox="-5.0 -10.0 110.0 135.0">
 <path d="m78.398 10h-56.797c-2.5586 0-4.6484 2.0898-4.6484 4.6484l-0.003906 64.152c0 6.1797 5.0195 11.199 11.199 11.199h53.711c0.41016 0 0.80078-0.21094 1.0195-0.55859 0.21875-0.35156 0.25-0.78906 0.070313-1.1602-1.5195-3.1719-2.2812-6.2891-2.2891-9.4219 0-0.019531 0.011719-0.039063 0.011719-0.058594s-0.011719-0.039062-0.011719-0.058593c0-3.1211 0.76953-6.25 2.2891-9.4219 0-0.011718 0-0.019531 0.011719-0.03125 0-0.019531 0.011718-0.039062 0.019531-0.058593 0.050781-0.12109 0.070312-0.25 0.078125-0.37891v-0.039062-54.164c0-2.5586-2.0898-4.6484-4.6484-4.6484zm2.25 4.6484v52.949l-46.75 0.003906v-55.203h44.5c1.2383 0 2.25 1.0117 2.25 2.25zm-61.309 0c0-1.2383 1.0117-2.25 2.25-2.25h9.8984v55.199h-3.3594c-3.5703 0-6.75 1.6797-8.8008 4.2891v-57.238zm8.8008 72.949c-4.8516 0-8.8008-3.9492-8.8008-8.8008v-0.019531c0-4.8398 3.9492-8.7812 8.8008-8.7812h51.871c-1.0117 2.5312-1.5508 5.0586-1.6914 7.6016l-51.422 0.003906c-0.66016 0-1.1992 0.53906-1.1992 1.1992 0 0.66016 0.53906 1.1992 1.1992 1.1992h51.43c0.14062 2.5391 0.67969 5.0703 1.6914 7.6016h-51.871z"/>
 <path d="m45.379 37v16.32c0 1.3398 1.0898 2.4414 2.4414 2.4414h18.922c1.3398 0 2.4414-1.0898 2.4414-2.4414v-16.32c3.2188-0.32812 5.7383-3.0586 5.7383-6.3594s-2.4102-5.9492-5.6016-6.3398c-0.058593 0-0.10937-0.011719-0.17187-0.011719-1.9492-0.03125-22.879-0.039062-23.102-0.039062-0.21875 0-0.46875 0.011719-0.71094 0.039062-0.050782 0-0.10156 0-0.14063 0.019532-3.1719 0.42188-5.5508 3.1289-5.5508 6.3398 0 3.2109 2.5195 6.0312 5.7383 6.3594zm21.359 16.359h-4.6992v-12.172c0-0.66016-0.53906-1.1992-1.1992-1.1992s-1.1992 0.53906-1.1992 1.1992v12.172h-4.7188v-12.172c0-0.66016-0.53906-1.1992-1.1992-1.1992s-1.1992 0.53906-1.1992 1.1992v12.172h-4.6992s-0.039063-0.019531-0.039063-0.039063v-16.539c1.8203-0.51953 3.3398-1.8203 4.1094-3.5703h10.77c0.76953 1.75 2.2891 3.0508 4.1094 3.5703v16.539s-0.019532 0.039063-0.039063 0.039063zm-21.191-26.68h0.019531c0.16016-0.019532 0.32031-0.03125 0.46875-0.03125 0.98828 0 21.789 0.011718 23.012 0.039062 1.9805 0.26172 3.4688 1.9492 3.4688 3.9609 0 2.1992-1.7891 4-3.9883 4-1.8008 0-3.3789-1.2109-3.8516-2.9414-0.14062-0.51953-0.62109-0.87891-1.1602-0.87891h-12.461c-0.53906 0-1.0195 0.35938-1.1602 0.87891-0.46875 1.7305-2.0586 2.9414-3.8516 2.9414-2.1992 0-3.9883-1.7891-3.9883-4 0-2.0195 1.5117-3.7188 3.5117-3.9609z"/>
<text x="0.0" y="117.5" font-size="5.0" font-weight="bold" font-family="Arbeit Regular, Helvetica, Arial-Unicode, Arial, Sans-serif" fill="#000000">Created by Rafia Rauf</text><text x="0.0" y="122.5" font-size="5.0" font-weight="bold" font-family="Arbeit Regular, Helvetica, Arial-Unicode, Arial, Sans-serif" fill="#000000">from Noun Project</text></svg>