<svg xmlns="http://www.w3.org/2000/svg" version="1.1" viewBox="-5.0 -10.0 110.0 135.0">
 <path d="m91.125 57.109c0.45312-2.5156 0.16406-4.5625-0.83984-5.918-1.8086-2.4414-6.2656-3.6914-11.949-3.3594h-0.011719c-0.074219 0.003907-0.14844 0.007813-0.22266 0.011719-2.7188 0.17969-5.4883 0.71875-8.2227 1.5508 1.2148-3.7305 1.543-7.5938 1.0547-11.328 0-0.03125-0.003906-0.058594-0.007813-0.089844-0.98828-7.3672-5.1094-14.211-11.715-18.449-2.3789-1.5273-4.9453-2.6328-7.6055-3.3125-0.003907 0-0.007813-0.003906-0.015625-0.003906-3.8672-0.98828-7.9336-1.0742-11.945-0.19922-6.7773 1.4805-12.574 5.5117-16.32 11.352-0.69531 1.082-1.2969 2.1992-1.8125 3.3398-0.003907 0.007813-0.007813 0.015625-0.011719 0.027344-1.7031 3.7734-2.4258 7.8086-2.25 11.773-0.007812 0.0625 0 0.125 0.007812 0.19141 0.24219 4.6641 1.7266 9.2266 4.3516 13.152 0.007813 0.019532 0.023437 0.035156 0.035156 0.054688 0.40625 0.60938 0.84766 1.1992 1.3086 1.7734-1.3633-0.54688-2.8438-0.85547-4.3984-0.85547-6.5508 0-11.883 5.3281-11.883 11.883 0 6.5508 5.3281 11.883 11.883 11.883 6.5508 0 11.883-5.3281 11.883-11.883 0-1.9844-0.49609-3.8555-1.3594-5.5039 0.027344 0.019531 0.054687 0.039062 0.082031 0.058593 4.1992 2.6953 9.0859 4.1133 14.035 4.1133 0.51563 0 1.0352-0.015625 1.5508-0.046875-0.29297 0.48828-0.56641 0.98047-0.82422 1.4688-1.1875 2.2539-2.0039 4.4688-2.3633 6.4727-0.45312 2.5156-0.16406 4.5625 0.83984 5.918 1.6172 2.1836 5.3477 3.4141 10.184 3.4141 0.52344 0 1.0703-0.023437 1.6172-0.054687 0.015625 0 0.03125 0.007812 0.046875 0.007812 0.019531 0 0.039062-0.007812 0.058594-0.011719 0.09375-0.003906 0.18359-0.003906 0.27734-0.007812 6.3281-0.41406 12.957-2.6875 18.664-6.4023 4.2422-2.7617 8.0234-6.3555 10.934-10.387 0.99609-1.3789 1.8633-2.7812 2.5938-4.1641 0.003906-0.003906 0.003906-0.011719 0.007812-0.015625 1.1797-2.2422 1.9883-4.4453 2.3477-6.4414zm-2.1719-4.9336c0.71484 0.96875 0.91016 2.6172 0.54297 4.6406-0.28516 1.5898-0.9375 3.4453-1.918 5.418-2.7344-0.52344-5.1172-2.0391-6.7383-4.332-1.7422-2.4609-2.3516-5.5039-1.7305-8.4375 0.30859-0.011719 0.625-0.03125 0.92578-0.03125 4.2422 0 7.6484 1.0195 8.9219 2.7422zm-29.18 1.8633c-12.676-3.7812-22.871-9.3789-30.934-16.988 0.99219-2.1133 2.1523-4.1328 3.4688-6.0078 1.8789 1.1758 4.0898 1.9766 6.2461 2.168 2.4297 0.21484 5.0977 0.074218 7.9219-0.074219 7.4648-0.39453 15.91-0.82812 22.836 5.3398 0.46875 3.8242 0.035156 7.7891-1.4102 11.57-2.8164 1.0195-5.5586 2.3594-8.125 3.9922zm-11.273 10.598c-0.21875 0.30469-0.42188 0.60938-0.62891 0.91406-0.34766 0.039063-0.69922 0.0625-1.0469 0.085938-7.7969-2.7109-13.059-7.6289-16.07-15.039-1.0391-2.5625-2.5781-5.0352-4.3789-6.7578 0.46875-1.7734 1.0586-3.5039 1.7617-5.1836 7.8984 7.3281 17.762 12.789 29.875 16.57-3.6641 2.6094-6.9297 5.8359-9.5078 9.4141zm-27.629-23.082c-0.023438-2.9844 0.49219-5.9961 1.5977-8.875 1.3867 1.6602 2.8438 3.25 4.3828 4.7617-0.73828 1.7188-1.3672 3.4766-1.8711 5.2617-1.2969-0.88281-2.6914-1.332-4.1094-1.1484zm3.668 2.8672c-0.62109 2.6289-0.98437 5.293-1.0586 7.9258-1.4375-2.8555-2.3008-5.9688-2.5391-9.1445 1.1406-0.19922 2.3477 0.21094 3.6016 1.2188zm44.352-8.4219c-7.0898-5.3164-15.242-4.8984-22.504-4.5156-2.7617 0.14453-5.3711 0.28516-7.6875 0.078125-1.8398-0.16406-3.7617-0.85547-5.4062-1.8594 4.7227-6.1484 11.098-10.59 18.082-11.84 2.4258 0.64062 4.7617 1.6602 6.9336 3.0547 5.5234 3.543 9.1953 9.0352 10.578 15.082zm-28.898-18.371c2.4844-0.54297 4.9883-0.6875 7.4492-0.46094-5.8711 1.9375-11.246 5.9297-15.531 11.574-0.60938-0.49609-1.1484-1.043-1.5859-1.6172-0.6875-0.90625-1.4219-2.3164-1.2148-3.9844 3.0664-2.707 6.7773-4.6172 10.883-5.5117zm-15.281 10.625c0.82031-1.2812 1.7578-2.4609 2.7773-3.5469 0.18359 1.1719 0.69531 2.3281 1.5195 3.4141 0.53516 0.70312 1.1914 1.3633 1.9297 1.957-0.066406 0.09375-0.13281 0.17969-0.19531 0.27344-1.1914 1.7422-2.2422 3.5781-3.1562 5.4766-1.5391-1.5391-3.0039-3.1523-4.3828-4.8516 0.44141-0.92969 0.9375-1.8398 1.5078-2.7266zm-8.5781 31.23c-0.007812 0.050781-0.019531 0.10156-0.011718 0.15625 0.039062 0.33594 0.32422 0.58594 0.65625 0.58594 0.027344 0 0.050781 0 0.078125-0.003906l0.94922-0.10938c0.011718 0.11328 0.03125 0.23047 0.039062 0.34375l-1.0039 0.039063c-0.36328 0.015625-0.64844 0.32031-0.63672 0.6875 0.015625 0.35547 0.30859 0.63672 0.66016 0.63672h0.027344l0.97266-0.039062c-0.007812 0.14844-0.007812 0.29688-0.019531 0.44531l-1.082-0.097656c-0.36328-0.035156-0.6875 0.23438-0.71875 0.59766-0.035157 0.36328 0.23438 0.6875 0.59766 0.71875l1.0078 0.09375c-0.039063 0.19141-0.082032 0.38281-0.12891 0.57031l-1.0352-0.22266c-0.35547-0.078125-0.70703 0.15234-0.78516 0.50781s0.15234 0.70703 0.50781 0.78516l0.88672 0.19141c-0.054688 0.13281-0.10547 0.26172-0.16406 0.39062l-0.91406-0.33594c-0.34375-0.125-0.72266 0.050781-0.84766 0.39453s0.050781 0.72266 0.39453 0.84766l0.74219 0.27344c-0.074219 0.125-0.15234 0.24609-0.23047 0.36719l-0.86719-0.48047c-0.32031-0.17578-0.72266-0.0625-0.89844 0.25781-0.17578 0.32031-0.0625 0.72266 0.25781 0.89844l0.69922 0.38672c-0.10547 0.12109-0.21094 0.23828-0.32031 0.35547l-0.82031-0.66016c-0.28516-0.23047-0.69922-0.18359-0.92969 0.10156-0.23047 0.28516-0.18359 0.69922 0.10156 0.92969l0.67578 0.54297c-0.10156 0.085937-0.20703 0.16797-0.31641 0.24609l-0.75781-0.87891c-0.23828-0.27734-0.65625-0.30859-0.93359-0.070312s-0.30859 0.65625-0.070313 0.93359l0.65625 0.76172c-0.11719 0.070313-0.24219 0.13672-0.36328 0.19922l-0.42578-0.83203c-0.16406-0.32422-0.5625-0.45703-0.89062-0.28906-0.32422 0.16406-0.45312 0.5625-0.28906 0.89062l0.39844 0.78516c-0.089844 0.035156-0.17578 0.070312-0.26953 0.10156-0.25-0.88672-0.39453-1.8164-0.39453-2.7852 0-4.0547 2.3789-7.5586 5.8125-9.2109zm-4.9805 13.246c0.14844-0.050781 0.28906-0.10938 0.43359-0.16797l0.26562 0.52344c0.11719 0.23047 0.34766 0.36328 0.58984 0.36328 0.10156 0 0.20312-0.023438 0.30078-0.070313 0.32422-0.16406 0.45312-0.5625 0.28906-0.89062l-0.24219-0.47656c0.21875-0.11328 0.42969-0.23828 0.63672-0.36328l0.73438 0.85156c0.12891 0.15234 0.31641 0.23047 0.5 0.23047 0.15234 0 0.30469-0.054688 0.42969-0.16016 0.27734-0.23828 0.30859-0.65625 0.070312-0.93359l-0.63672-0.74219c0.17187-0.13281 0.33203-0.26953 0.49609-0.41016l0.80859 0.65234c0.12109 0.097656 0.26953 0.14453 0.41406 0.14453 0.19531 0 0.38672-0.085938 0.51562-0.24609 0.23047-0.28516 0.18359-0.69922-0.10156-0.92969l-0.67578-0.54297c0.16016-0.17188 0.3125-0.35156 0.46094-0.53516l1.0625 0.58984c0.10156 0.054687 0.21094 0.082031 0.32031 0.082031 0.23438 0 0.45703-0.125 0.57812-0.33984 0.17578-0.32031 0.0625-0.72266-0.25781-0.89844l-0.91016-0.50391c0.11719-0.17969 0.22266-0.36328 0.32812-0.54688l1.207 0.44141c0.074219 0.027344 0.15234 0.039063 0.22656 0.039063 0.26953 0 0.52344-0.16797 0.62109-0.43359 0.125-0.34375-0.050782-0.72266-0.39453-0.84766l-1.0508-0.38281c0.082031-0.18359 0.15234-0.375 0.22266-0.56641l1.2812 0.27344c0.046875 0.011718 0.09375 0.015625 0.14062 0.015625 0.30469 0 0.57812-0.21094 0.64453-0.52344 0.078124-0.35547-0.15234-0.70703-0.50781-0.78516l-1.1484-0.24609c0.0625-0.23828 0.11328-0.48438 0.16016-0.72656l1.1328 0.10156c0.019532 0 0.039063 0.003907 0.0625 0.003907 0.33984 0 0.625-0.25781 0.65625-0.60156 0.035156-0.36328-0.23438-0.6875-0.59766-0.71875l-1.0625-0.097656c0.015625-0.20312 0.019531-0.41016 0.027344-0.61719l1.2617-0.046875c0.36328-0.015625 0.64844-0.32031 0.63672-0.6875-0.015625-0.36328-0.32031-0.64844-0.6875-0.63672l-1.2344 0.046874c-0.011718-0.14844-0.035156-0.29687-0.050781-0.44922l1.2266-0.14453c0.36328-0.042968 0.62109-0.37109 0.58203-0.73437-0.042969-0.36328-0.37109-0.62109-0.73438-0.58203l-1.2891 0.14844c-0.003906-0.011719-0.003906-0.023438-0.007812-0.035156 0.53906-0.089844 1.0898-0.14844 1.6562-0.14844 4.207 0 7.8281 2.5547 9.3984 6.1953-0.14453 0.050782-0.28516 0.10938-0.42969 0.16797l-0.26562-0.52344c-0.16406-0.32422-0.5625-0.45703-0.89062-0.28906-0.32422 0.16406-0.45312 0.5625-0.28906 0.89062l0.24219 0.47656c-0.21875 0.11328-0.42969 0.23828-0.63672 0.36328l-0.73438-0.85156c-0.23828-0.27734-0.65625-0.30859-0.93359-0.070313s-0.30859 0.65625-0.070312 0.93359l0.63672 0.74219c-0.17187 0.13281-0.33203 0.26953-0.49609 0.41016l-0.80859-0.65234c-0.28516-0.23047-0.69922-0.18359-0.92969 0.10156-0.23047 0.28516-0.18359 0.69922 0.10156 0.92969l0.67578 0.54297c-0.16016 0.17187-0.3125 0.35156-0.46094 0.53516l-1.0625-0.58984c-0.32031-0.17578-0.72266-0.0625-0.89844 0.25781-0.17578 0.32031-0.0625 0.72266 0.25781 0.89844l0.91016 0.50391c-0.11719 0.17969-0.22266 0.36328-0.32812 0.54688l-1.207-0.44141c-0.34375-0.125-0.72266 0.050781-0.84766 0.39453s0.050782 0.72266 0.39453 0.84766l1.0508 0.38281c-0.082031 0.18359-0.15234 0.375-0.22266 0.56641l-1.2812-0.27344c-0.35547-0.078125-0.70703 0.15234-0.78516 0.50781-0.078124 0.35547 0.15234 0.70703 0.50781 0.78516l1.1484 0.24609c-0.0625 0.23828-0.11328 0.48438-0.16016 0.72656l-1.1328-0.10156c-0.36328-0.03125-0.68359 0.23438-0.71875 0.59766-0.035156 0.36328 0.23438 0.6875 0.59766 0.71875l1.0625 0.097657c-0.015625 0.20312-0.019531 0.41016-0.027344 0.61719l-1.2617 0.046875c-0.36328 0.015625-0.64844 0.32031-0.63672 0.6875 0.015625 0.35547 0.30859 0.63672 0.66016 0.63672h0.027344l1.2344-0.046875c0.011718 0.12891 0.03125 0.25781 0.042968 0.38672l-1.1406 0.12891c-0.36328 0.039062-0.625 0.36719-0.58203 0.73047 0.039063 0.33594 0.32422 0.58594 0.65625 0.58594 0.023438 0 0.050782 0 0.074219-0.003906l1.207-0.13672c0.007813 0.03125 0.011719 0.0625 0.019532 0.09375-0.54297 0.089844-1.0938 0.14844-1.6602 0.14844-4.207 0-7.8281-2.5547-9.3984-6.1953zm14.02 5.0781c0.003906-0.042969 0.015625-0.085938 0.011719-0.12891-0.039063-0.36328-0.36719-0.625-0.73047-0.58203l-1.1602 0.12891c-0.011719-0.097656-0.023438-0.19141-0.03125-0.28906l1.0039-0.039062c0.36328-0.015626 0.64844-0.32031 0.63672-0.6875-0.015625-0.36328-0.32031-0.64844-0.6875-0.63672l-0.97266 0.039062c0.007812-0.14844 0.007812-0.29688 0.019531-0.44531l1.082 0.097656c0.019531 0 0.039062 0.003906 0.0625 0.003906 0.33984 0 0.625-0.25781 0.65625-0.60156 0.035156-0.36328-0.23438-0.6875-0.59766-0.71875l-1.0078-0.09375c0.039063-0.19141 0.082031-0.38281 0.12891-0.57031l1.0352 0.22266c0.046875 0.011719 0.09375 0.015626 0.14062 0.015626 0.30469 0 0.57812-0.21094 0.64453-0.52344 0.078125-0.35547-0.15234-0.70703-0.50781-0.78516l-0.88672-0.19141c0.054687-0.12891 0.10547-0.26172 0.16406-0.39063l0.91406 0.33594c0.074218 0.027344 0.15234 0.039062 0.22656 0.039062 0.26953 0 0.52344-0.16797 0.62109-0.43359 0.125-0.34375-0.050781-0.72266-0.39453-0.84766l-0.74219-0.27344c0.074219-0.125 0.15234-0.24609 0.23047-0.36719l0.86719 0.48047c0.10156 0.054688 0.21094 0.082032 0.32031 0.082032 0.23438 0 0.45703-0.125 0.57812-0.33984 0.17578-0.32031 0.0625-0.72266-0.25781-0.89844l-0.69922-0.38672c0.10547-0.12109 0.21094-0.23828 0.32031-0.35547l0.82031 0.66016c0.12109 0.097656 0.26953 0.14453 0.41406 0.14453 0.19531 0 0.38672-0.085937 0.51562-0.24609 0.23047-0.28516 0.18359-0.69922-0.10156-0.92969l-0.67578-0.54297c0.10156-0.085937 0.20703-0.16797 0.31641-0.24609l0.75781 0.87891c0.13281 0.15234 0.31641 0.23047 0.5 0.23047 0.15234 0 0.30469-0.054688 0.42969-0.16016 0.27734-0.23828 0.30859-0.65625 0.070312-0.93359l-0.65625-0.76172c0.11719-0.070313 0.24219-0.13672 0.36328-0.19922l0.42578 0.83203c0.11719 0.23047 0.34766 0.36328 0.58984 0.36328 0.10156 0 0.20312-0.023437 0.30078-0.070312 0.32422-0.16406 0.45312-0.5625 0.28906-0.89062l-0.39844-0.78516c0.089844-0.035157 0.17578-0.070313 0.26562-0.10156 0.25 0.88672 0.39453 1.8164 0.39453 2.7852 0 3.9766-2.2852 7.418-5.6055 9.1133zm-0.003906-22.598c-0.17188-3.1836 0.09375-6.3672 0.74609-9.4609 1.2812 1.4492 2.4609 3.3906 3.3047 5.4688 2.6562 6.5352 6.957 11.246 13.07 14.305-3.625-0.43359-7.1367-1.668-10.246-3.6641-2.7969-1.793-5.1016-4.0703-6.875-6.6484zm20.555 24.98c-0.71484-0.96875-0.91016-2.6172-0.54297-4.6406 0.28516-1.5898 0.9375-3.4453 1.918-5.418 2.7344 0.52344 5.1172 2.0391 6.7383 4.332 1.7461 2.4648 2.3516 5.5156 1.7305 8.4531-4.668 0.15625-8.4805-0.88281-9.8438-2.7266zm28.617-3.457c-5.2305 3.4062-11.258 5.5273-17.062 6.0586 0.5625-3.2422-0.17188-6.5703-2.0938-9.2812-1.7461-2.4648-4.3555-4.207-7.2773-4.8984 2.5352-4.4297 6.6992-9.25 12.426-12.977 5.2305-3.4062 11.258-5.5273 17.062-6.0586-0.5625 3.2422 0.17188 6.5703 2.0938 9.2812 1.7461 2.4648 4.3555 4.207 7.2773 4.8984-2.5352 4.4297-6.6992 9.25-12.426 12.977zm2.1445-15.191-1.0234 0.625 1.2422 2.0234c0.23828 0.39062 0.11719 0.89844-0.27344 1.1367-0.13672 0.082031-0.28516 0.12109-0.42969 0.12109-0.27734 0-0.55078-0.14062-0.70703-0.39453l-1.2422-2.0234-2.0859 1.2773 1.2422 2.0234c0.23828 0.39062 0.11719 0.89844-0.27344 1.1367-0.13672 0.082031-0.28516 0.12109-0.42969 0.12109-0.27734 0-0.55078-0.14062-0.70703-0.39453l-1.2422-2.0234-2.0859 1.2773 1.2422 2.0234c0.23828 0.39062 0.11719 0.89844-0.27344 1.1367-0.13672 0.082031-0.28516 0.12109-0.42969 0.12109-0.27734 0-0.55078-0.14062-0.70703-0.39453l-1.2422-2.0234-2.0859 1.2773 1.2422 2.0234c0.23828 0.39062 0.11719 0.89844-0.27344 1.1367-0.13672 0.082031-0.28516 0.12109-0.42969 0.12109-0.27734 0-0.55078-0.14062-0.70703-0.39453l-1.2422-2.0234-2.0859 1.2773 1.2422 2.0234c0.23828 0.39062 0.11719 0.89844-0.27344 1.1367-0.13672 0.082031-0.28516 0.12109-0.42969 0.12109-0.27734 0-0.55078-0.14062-0.70703-0.39453l-1.2422-2.0234-1.0234 0.625c-0.13672 0.082031-0.28516 0.12109-0.42969 0.12109-0.27734 0-0.55078-0.14062-0.70703-0.39453-0.23828-0.39062-0.11719-0.89844 0.27344-1.1367l1.0234-0.625-1.2422-2.0234c-0.23828-0.39062-0.11719-0.89844 0.27344-1.1367 0.39062-0.23828 0.89844-0.11719 1.1367 0.27344l1.2422 2.0234 2.0859-1.2773-1.2422-2.0234c-0.23828-0.39062-0.11719-0.89844 0.27344-1.1367 0.39062-0.23828 0.89844-0.11719 1.1367 0.27344l1.2422 2.0234 2.0859-1.2773-1.2422-2.0234c-0.23828-0.39062-0.11719-0.89844 0.27344-1.1367 0.39063-0.23828 0.89844-0.11719 1.1367 0.27344l1.2422 2.0234 2.0859-1.2773-1.2422-2.0234c-0.23828-0.39062-0.11719-0.89844 0.27344-1.1367 0.39062-0.23828 0.89844-0.11719 1.1367 0.27344l1.2422 2.0234 2.0859-1.2773-1.2422-2.0234c-0.23828-0.39062-0.11719-0.89844 0.27344-1.1367 0.39062-0.23828 0.89844-0.11719 1.1367 0.27344l1.2422 2.0234 1.0234-0.625c0.39062-0.23828 0.89844-0.11719 1.1367 0.27344 0.23828 0.39062 0.11719 0.89844-0.27344 1.1367z"/>
<text x="0.0" y="117.5" font-size="5.0" font-weight="bold" font-family="Arbeit Regular, Helvetica, Arial-Unicode, Arial, Sans-serif" fill="#000000">Created by Arfan Haq</text><text x="0.0" y="122.5" font-size="5.0" font-weight="bold" font-family="Arbeit Regular, Helvetica, Arial-Unicode, Arial, Sans-serif" fill="#000000">from Noun Project</text></svg>