<svg xmlns="http://www.w3.org/2000/svg" version="1.1" viewBox="-5.0 -10.0 110.0 135.0">
 <path d="m85.828 83.238v-2.7109c16.594-13.391 18.383-39.738 3.7109-55.211 0.625-0.87109 0.50781-2.1602-0.27344-2.8984l-1.5703-1.5391 1.5469-1.582 1.4766 1.4453c0.72266 0.70703 1.8867 0.69531 2.5977-0.027344l2.6484-2.7031c0.70703-0.72266 0.69531-1.8867-0.027344-2.5977l-8.7617-8.5859c-0.72266-0.70703-1.8867-0.69531-2.5938 0.027344l-2.6484 2.7031c-0.69922 0.68359-0.6875 1.9258 0.027344 2.5938l1.4766 1.4453-1.543 1.5781-1.5664-1.5391c-0.89844-0.875-2.3438-0.85938-3.2227 0.042969l-11.652 11.902-0.73828-0.72266c-0.73438-0.75-2.0391-0.73438-2.7578 0.027344l-3.2852 3.3516c-0.75 0.73438-0.73438 2.0391 0.027344 2.7578l13.66 13.383c0.73438 0.75 2.0391 0.73438 2.7578-0.027344 0 0 3.2852-3.3516 3.2852-3.3516 0.75-0.76562 0.73828-2.0039-0.027344-2.7578l-0.73828-0.72266 4.3086-4.3984c4.3516 5.0078 6.7578 11.355 6.7578 18.008 0 6.9648-2.5938 13.547-7.3047 18.633-1.6445-1.1133-3.6055-1.7188-5.6016-1.7188l-30.77-0.003907c-2.5234 0-4.8945 0.98047-6.6758 2.7617s-2.7617 4.1562-2.7617 6.6914c0 0.47266 0.38281 0.85156 0.85156 0.85156h29.34v4.8945h-31.906c-5.207 0-9.4414 4.2422-9.4414 9.457v3.5625c0 0.47266 0.38281 0.85156 0.85156 0.85156h70.348c0.47266 0 0.85156-0.38281 0.85156-0.85156v-3.5625c0.03125-5.7266-5.0469-9.9844-10.656-9.457zm-2.6758-72.301-0.003906-0.17969 2.6484-2.7031c0.046875-0.046876 0.13672-0.046876 0.17969 0l8.7617 8.5859c0.046875 0.046875 0.046875 0.13672 0 0.18359l-2.6484 2.7031c-0.046875 0.050781-0.13672 0.046875-0.18359 0zm1.5 3.8633c0.83984 0.82422 2.5312 2.4805 3.375 3.3047l-1.5469 1.5781c-0.10547-0.10156-3.4219-3.3555-3.3711-3.3047zm-7.4688 25.008-3.2852 3.3516c-0.058594 0.058594-0.125 0.074219-0.17578 0.074219-0.30859 0.011719-13.602-13.352-13.832-13.457-0.10156-0.125-0.10156-0.21875 0-0.34375l3.2852-3.3516c0.13672-0.10547 0.20312-0.10156 0.34375-0.003906l5.8984 5.7773 7.0195 6.8867 0.003906-0.003907 0.73828 0.72266c0.097656 0.09375 0.097656 0.25 0.003906 0.34766zm3.6289-7.9727-4.3984 4.4844-7.0312-6.8867-2.7148-2.6641 11.648-11.895c0.21875-0.22656 0.58203-0.23047 0.80859-0.015625l1.5664 1.5352 0.57422 0.5625 6.8047 6.6758c0.10547 0.10156 0.16406 0.23828 0.16797 0.38672 0 0.14453-0.054687 0.28125-0.15625 0.39062l-7.2734 7.4219zm2.3516 0.042968 5.2148-5.3242c13.531 14.305 12.293 38.824-2.5469 51.723 0.042969-2.7812-1.0625-5.5312-3.082-7.4492 9.9961-10.492 10.164-28.234 0.41406-38.949zm-1.4727 40.301c1.5625 1.5469 2.4062 3.6641 2.4336 5.875v5.1836h-16.641c0.007813-0.17578-0.023437-5.7422 0.027344-5.6953 0.35156-7.0625 9.2148-10.398 14.18-5.3633zm-44.352 4.4609c0.1875-1.7539 0.96094-3.375 2.2188-4.6328 1.4609-1.4609 3.4023-2.2617 5.4727-2.2617h25.184c-2.3242 1.5898-3.9297 4.0508-4.3242 6.8945zm57.441 18.762h-68.645v-2.707c0-4.2734 3.4688-7.75 7.7344-7.75h51.102 2.0547c4.2734 0 7.75 3.4766 7.75 7.75zm-59.824-73.176v-10.371c6.0859 0.10938 6.3477-8.7383 0.25781-8.9648h-19.859c-6.082 0.22266-5.8398 9.0664 0.25781 8.9648v10.371c-7 2.9688-12.082 8.8438-14.102 15.906-4.6914 15.441 7.582 31.867 23.773 31.613 26.863-0.36719 34.273-36.754 9.6719-47.52zm-19.602-12.078c-1.5312 0-2.7773-1.2461-2.7773-2.7773s1.2461-2.7773 2.7773-2.7773h19.859c3.6523 0.09375 3.6641 5.4531 0 5.5508h-1.1094l-17.641 0.003907zm1.4258 13.441c0.32422-0.12891 0.53906-0.44141 0.53906-0.79297v-10.941h15.934v10.945c0 0.35156 0.21484 0.66406 0.53906 0.79297 3.5352 1.4062 6.5547 3.6016 8.9219 6.332-3.2305 4.9375-11.137 5.8125-24.816 2.7266-5.3828-1.2148-9.6367-0.84766-12.699 1.0469 2.5195-4.4961 6.5352-8.1016 11.582-10.109zm-13.613 14.957c0.34375-1.0312 2.8203-6.832 14.352-4.2344 14.07 3.1719 22.492 2.2266 26.312-2.9883 11.199 14.848 0.17188 36.883-18.547 36.715-15.098 0.23828-26.539-15.109-22.117-29.492zm12.453 0.39453c-7.2695 0.23047-7.2695 10.773 0 11.004 7.2695-0.23047 7.2656-10.773 0-11.004zm0 9.2969c-5.0039-0.13281-5.0039-7.4609 0-7.5898 5.0039 0.12891 5 7.4609 0 7.5898zm8.0195 8.3164c-3.6211 0.09375-3.6211 5.4023 0 5.4961 3.625-0.09375 3.6211-5.4023 0-5.4961zm0 3.7891c-1.3594-0.007812-1.3594-2.0742 0-2.082 1.3594 0.007812 1.3633 2.0742 0 2.082zm12.906-16.754c-5.1484 0.13672-5.1484 7.6719 0 7.8086 5.1484-0.13672 5.1484-7.6758 0-7.8086zm0 6.1016c-2.8867-0.050781-2.8906-4.3438 0-4.3945 2.8906 0.050781 2.8867 4.3438 0 4.3945z"/>
<text x="0.0" y="117.5" font-size="5.0" font-weight="bold" font-family="Arbeit Regular, Helvetica, Arial-Unicode, Arial, Sans-serif" fill="#000000">Created by ahmadwil</text><text x="0.0" y="122.5" font-size="5.0" font-weight="bold" font-family="Arbeit Regular, Helvetica, Arial-Unicode, Arial, Sans-serif" fill="#000000">from Noun Project</text></svg>